# MagicaVoxel @ Ephtracy

# material
mtllib sobretudo_de_mago.mtl
usemtl palette

# normals
vn -1 0 0
vn 1 0 0
vn 0 0 1
vn 0 0 -1
vn 0 -1 0
vn 0 1 0

# texcoords
vt 0.0605469 0.5
vt 0.369141 0.5
vt 0.521484 0.5
vt 0.873047 0.5
vt 0.994141 0.5

# verts
v -3 3 -0.5
v -3 3 -1.5
v -3 4 -0.5
v -3 4 -1.5
v -3 7 0.5
v -3 7 -0.5
v -3 7 -1.5
v -3 7 -2.5
v -3 12 0.5
v -3 12 -2.5
v -2 0 -0.5
v -2 0 -1.5
v -2 1 0.5
v -2 1 -0.5
v -2 1 -1.5
v -2 1 -2.5
v -2 3 -0.5
v -2 3 -1.5
v -2 4 -0.5
v -2 4 -1.5
v -2 6 0.5
v -2 6 -0.5
v -2 6 -1.5
v -2 6 -2.5
v -2 7 0.5
v -2 7 -0.5
v -2 7 -1.5
v -2 7 -2.5
v 1 0 -0.5
v 1 0 -1.5
v 1 1 0.5
v 1 1 -0.5
v 1 1 -1.5
v 1 2 -0.5
v 1 2 -1.5
v 1 3 -0.5
v 1 6 0.5
v 1 6 -0.5
v 2 6 2.5
v 2 6 1.5
v 2 6 0.5
v 2 7 2.5
v 2 7 1.5
v 2 7 0.5
v -1 0 -0.5
v -1 0 -1.5
v -1 1 0.5
v -1 1 -0.5
v -1 1 -1.5
v -1 2 -0.5
v -1 2 -1.5
v -1 3 -0.5
v -1 6 0.5
v -1 6 -0.5
v 2 0 -0.5
v 2 0 -1.5
v 2 1 0.5
v 2 1 -0.5
v 2 1 -1.5
v 2 1 -2.5
v 2 6 0.5
v 2 6 -1.5
v 2 6 -2.5
v 2 7 -1.5
v 2 7 -2.5
v 3 6 2.5
v 3 6 1.5
v 3 6 -1.5
v 3 7 2.5
v 3 7 1.5
v 3 7 0.5
v 3 7 -1.5
v 3 7 -2.5
v 3 12 0.5
v 3 12 -2.5
v 2 6 2.5
v 2 7 2.5
v 3 6 2.5
v 3 7 2.5
v -3 7 0.5
v -3 12 0.5
v -2 1 0.5
v -2 6 0.5
v -2 7 0.5
v -2 8 0.5
v -2 9 0.5
v -1 1 0.5
v -1 6 0.5
v -1 8 0.5
v -1 9 0.5
v 1 1 0.5
v 1 6 0.5
v 1 8 0.5
v 1 9 0.5
v 2 1 0.5
v 2 6 0.5
v 2 7 0.5
v 2 8 0.5
v 2 9 0.5
v 3 7 0.5
v 3 12 0.5
v -3 3 -0.5
v -3 4 -0.5
v -3 7 -0.5
v -2 0 -0.5
v -2 1 -0.5
v -2 3 -0.5
v -2 4 -0.5
v -2 6 -0.5
v -2 7 -0.5
v -1 0 -0.5
v -1 1 -0.5
v -1 2 -0.5
v -1 3 -0.5
v -1 6 -0.5
v 1 0 -0.5
v 1 1 -0.5
v 1 2 -0.5
v 1 3 -0.5
v 1 6 -0.5
v 2 0 -0.5
v 2 1 -0.5
v -1 1 -1.5
v -1 2 -1.5
v 1 1 -1.5
v 1 2 -1.5
v -3 3 -1.5
v -3 4 -1.5
v -3 7 -1.5
v -2 0 -1.5
v -2 1 -1.5
v -2 3 -1.5
v -2 4 -1.5
v -2 6 -1.5
v -2 7 -1.5
v -1 0 -1.5
v -1 1 -1.5
v 1 0 -1.5
v 1 1 -1.5
v 2 0 -1.5
v 2 1 -1.5
v 2 6 -1.5
v 2 7 -1.5
v 3 6 -1.5
v 3 7 -1.5
v -3 7 -2.5
v -3 12 -2.5
v -2 1 -2.5
v -2 6 -2.5
v -2 7 -2.5
v 2 1 -2.5
v 2 6 -2.5
v 2 7 -2.5
v 3 7 -2.5
v 3 12 -2.5
v -2 0 -0.5
v -1 0 -0.5
v 1 0 -0.5
v 2 0 -0.5
v -2 0 -1.5
v -1 0 -1.5
v 1 0 -1.5
v 2 0 -1.5
v -2 1 0.5
v -1 1 0.5
v 1 1 0.5
v 2 1 0.5
v -2 1 -0.5
v -1 1 -0.5
v 1 1 -0.5
v 2 1 -0.5
v -2 1 -1.5
v -1 1 -1.5
v 1 1 -1.5
v 2 1 -1.5
v -2 1 -2.5
v 2 1 -2.5
v -1 2 -0.5
v 1 2 -0.5
v -1 2 -1.5
v 1 2 -1.5
v -3 3 -0.5
v -2 3 -0.5
v -3 3 -1.5
v -2 3 -1.5
v 2 6 2.5
v 3 6 2.5
v 2 6 1.5
v 3 6 1.5
v -1 6 0.5
v 1 6 0.5
v 2 6 0.5
v -1 6 -0.5
v 1 6 -0.5
v 2 6 -1.5
v 3 6 -1.5
v -3 7 0.5
v -2 7 0.5
v -3 7 -0.5
v -2 7 -0.5
v -3 7 -1.5
v -2 7 -1.5
v 2 7 -1.5
v 3 7 -1.5
v -3 7 -2.5
v -2 7 -2.5
v 2 7 -2.5
v 3 7 -2.5
v 2 7 2.5
v 3 7 2.5
v 2 7 1.5
v 3 7 1.5
v 2 7 0.5
v 3 7 0.5
v -3 12 0.5
v 3 12 0.5
v -3 12 -2.5
v 3 12 -2.5

# faces
f 3/1/1 2/1/1 1/1/1
f 4/1/1 2/1/1 3/1/1
f 6/4/1 4/4/1 3/4/1
f 7/4/1 4/4/1 6/4/1
f 9/1/1 7/1/1 6/1/1
f 9/1/1 8/1/1 7/1/1
f 9/1/1 6/1/1 5/1/1
f 10/1/1 8/1/1 9/1/1
f 14/5/1 12/5/1 11/5/1
f 15/5/1 12/5/1 14/5/1
f 17/4/1 14/4/1 13/4/1
f 17/4/1 16/4/1 15/4/1
f 17/4/1 15/4/1 14/4/1
f 18/4/1 16/4/1 17/4/1
f 19/4/1 17/4/1 13/4/1
f 20/4/1 16/4/1 18/4/1
f 21/4/1 19/4/1 13/4/1
f 22/4/1 19/4/1 21/4/1
f 23/4/1 16/4/1 20/4/1
f 24/4/1 16/4/1 23/4/1
f 25/5/1 22/5/1 21/5/1
f 26/5/1 22/5/1 25/5/1
f 27/5/1 24/5/1 23/5/1
f 28/5/1 24/5/1 27/5/1
f 32/5/1 30/5/1 29/5/1
f 33/5/1 30/5/1 32/5/1
f 34/4/1 32/4/1 31/4/1
f 34/4/1 33/4/1 32/4/1
f 35/4/1 33/4/1 34/4/1
f 36/4/1 34/4/1 31/4/1
f 37/4/1 36/4/1 31/4/1
f 38/4/1 36/4/1 37/4/1
f 42/1/1 40/1/1 39/1/1
f 43/4/1 41/4/1 40/4/1
f 43/1/1 40/1/1 42/1/1
f 44/4/1 41/4/1 43/4/1
f 45/5/2 46/5/2 48/5/2
f 48/5/2 46/5/2 49/5/2
f 47/4/2 48/4/2 50/4/2
f 48/4/2 49/4/2 50/4/2
f 50/4/2 49/4/2 51/4/2
f 47/4/2 50/4/2 52/4/2
f 47/4/2 52/4/2 53/4/2
f 53/4/2 52/4/2 54/4/2
f 55/5/2 56/5/2 58/5/2
f 58/5/2 56/5/2 59/5/2
f 57/4/2 58/4/2 61/4/2
f 59/4/2 60/4/2 61/4/2
f 58/4/2 59/4/2 61/4/2
f 61/4/2 60/4/2 62/4/2
f 62/4/2 60/4/2 63/4/2
f 62/5/2 63/5/2 64/5/2
f 64/5/2 63/5/2 65/5/2
f 66/1/2 67/1/2 69/1/2
f 67/4/2 68/4/2 70/4/2
f 69/1/2 67/1/2 70/1/2
f 70/4/2 68/4/2 71/4/2
f 71/4/2 68/4/2 72/4/2
f 72/1/2 73/1/2 74/1/2
f 71/1/2 72/1/2 74/1/2
f 74/1/2 73/1/2 75/1/2
f 78/1/3 77/1/3 76/1/3
f 79/1/3 77/1/3 78/1/3
f 84/1/3 81/1/3 80/1/3
f 85/1/3 81/1/3 84/1/3
f 86/1/3 81/1/3 85/1/3
f 87/4/3 83/4/3 82/4/3
f 88/5/3 84/5/3 83/5/3
f 88/4/3 83/4/3 87/4/3
f 89/1/3 85/1/3 84/1/3
f 89/5/3 86/5/3 85/5/3
f 90/1/3 81/1/3 86/1/3
f 90/5/3 86/5/3 89/5/3
f 92/5/3 84/5/3 88/5/3
f 93/1/3 89/1/3 84/1/3
f 93/1/3 90/1/3 89/1/3
f 94/1/3 81/1/3 90/1/3
f 94/1/3 90/1/3 93/1/3
f 95/4/3 92/4/3 91/4/3
f 96/5/3 84/5/3 92/5/3
f 96/4/3 92/4/3 95/4/3
f 97/1/3 93/1/3 84/1/3
f 97/5/3 84/5/3 96/5/3
f 98/5/3 94/5/3 93/5/3
f 98/1/3 93/1/3 97/1/3
f 99/1/3 81/1/3 94/1/3
f 99/5/3 94/5/3 98/5/3
f 100/1/3 98/1/3 97/1/3
f 100/1/3 99/1/3 98/1/3
f 101/1/3 81/1/3 99/1/3
f 101/1/3 99/1/3 100/1/3
f 107/1/3 103/1/3 102/1/3
f 108/4/3 104/4/3 103/4/3
f 108/1/3 103/1/3 107/1/3
f 109/4/3 104/4/3 108/4/3
f 110/4/3 104/4/3 109/4/3
f 111/5/3 106/5/3 105/5/3
f 112/5/3 106/5/3 111/5/3
f 118/4/3 114/4/3 113/4/3
f 119/5/3 115/5/3 114/5/3
f 119/4/3 114/4/3 118/4/3
f 120/5/3 115/5/3 119/5/3
f 121/5/3 117/5/3 116/5/3
f 122/5/3 117/5/3 121/5/3
f 125/4/3 124/4/3 123/4/3
f 126/4/3 124/4/3 125/4/3
f 127/1/4 128/1/4 132/1/4
f 128/4/4 129/4/4 133/4/4
f 132/1/4 128/1/4 133/1/4
f 133/4/4 129/4/4 134/4/4
f 134/4/4 129/4/4 135/4/4
f 130/5/4 131/5/4 136/5/4
f 136/5/4 131/5/4 137/5/4
f 138/5/4 139/5/4 140/5/4
f 140/5/4 139/5/4 141/5/4
f 142/4/4 143/4/4 144/4/4
f 144/4/4 143/4/4 145/4/4
f 146/1/4 147/1/4 150/1/4
f 148/4/4 149/4/4 151/4/4
f 149/5/4 150/5/4 152/5/4
f 151/4/4 149/4/4 152/4/4
f 150/1/4 147/1/4 153/1/4
f 152/5/4 150/5/4 153/5/4
f 153/1/4 147/1/4 154/1/4
f 154/1/4 147/1/4 155/1/4
f 160/5/5 157/5/5 156/5/5
f 161/5/5 157/5/5 160/5/5
f 162/5/5 159/5/5 158/5/5
f 163/5/5 159/5/5 162/5/5
f 168/4/5 165/4/5 164/4/5
f 169/4/5 165/4/5 168/4/5
f 170/4/5 167/4/5 166/4/5
f 171/4/5 167/4/5 170/4/5
f 176/4/5 173/4/5 172/4/5
f 176/4/5 175/4/5 174/4/5
f 176/4/5 174/4/5 173/4/5
f 177/4/5 175/4/5 176/4/5
f 180/4/5 179/4/5 178/4/5
f 181/4/5 179/4/5 180/4/5
f 184/1/5 183/1/5 182/1/5
f 185/1/5 183/1/5 184/1/5
f 188/1/5 187/1/5 186/1/5
f 189/1/5 187/1/5 188/1/5
f 192/4/5 189/4/5 188/4/5
f 193/5/5 191/5/5 190/5/5
f 194/5/5 191/5/5 193/5/5
f 195/4/5 189/4/5 192/4/5
f 196/4/5 189/4/5 195/4/5
f 199/1/5 198/1/5 197/1/5
f 200/1/5 198/1/5 199/1/5
f 205/1/5 202/1/5 201/1/5
f 206/1/5 202/1/5 205/1/5
f 207/1/5 204/1/5 203/1/5
f 208/1/5 204/1/5 207/1/5
f 209/1/6 210/1/6 211/1/6
f 211/1/6 210/1/6 212/1/6
f 211/4/6 212/4/6 213/4/6
f 213/4/6 212/4/6 214/4/6
f 215/1/6 216/1/6 217/1/6
f 217/1/6 216/1/6 218/1/6
