# MagicaVoxel @ Ephtracy

# material
mtllib cajado_da_areia.mtl
usemtl palette

# normals
vn -1 0 0
vn 1 0 0
vn 0 0 1
vn 0 0 -1
vn 0 -1 0
vn 0 1 0

# texcoords
vt 0.0175781 0.5
vt 0.369141 0.5

# verts
v 2 2 3
v 2 2 2
v 2 6 3
v 2 6 2
v 2 7 3
v 2 7 2
v 2 8 4
v 2 8 3
v 2 9 4
v 2 9 2
v 2 10 4
v 2 10 3
v 2 11 4
v 2 11 3
v 3 2 3
v 3 2 2
v 3 6 3
v 3 6 2
v 3 7 3
v 3 7 2
v 3 8 4
v 3 8 3
v 3 9 4
v 3 9 2
v 3 10 4
v 3 10 3
v 3 11 4
v 3 11 3
v 2 8 4
v 2 9 4
v 2 10 4
v 2 11 4
v 3 8 4
v 3 9 4
v 3 10 4
v 3 11 4
v 2 2 3
v 2 6 3
v 2 7 3
v 2 8 3
v 3 2 3
v 3 6 3
v 3 7 3
v 3 8 3
v 2 10 3
v 2 11 3
v 3 10 3
v 3 11 3
v 2 2 2
v 2 6 2
v 2 7 2
v 2 9 2
v 3 2 2
v 3 6 2
v 3 7 2
v 3 9 2
v 2 2 3
v 3 2 3
v 2 2 2
v 3 2 2
v 2 7 3
v 3 7 3
v 2 7 2
v 3 7 2
v 2 8 4
v 3 8 4
v 2 8 3
v 3 8 3
v 2 10 4
v 3 10 4
v 2 10 3
v 3 10 3
v 2 6 3
v 3 6 3
v 2 6 2
v 3 6 2
v 2 9 4
v 3 9 4
v 2 9 2
v 3 9 2
v 2 11 4
v 3 11 4
v 2 11 3
v 3 11 3

# faces
f 3/2/1 2/2/1 1/2/1
f 4/2/1 2/2/1 3/2/1
f 8/2/1 6/2/1 5/2/1
f 9/2/1 8/2/1 7/2/1
f 10/2/1 6/2/1 8/2/1
f 10/2/1 8/2/1 9/2/1
f 13/1/1 12/1/1 11/1/1
f 14/1/1 12/1/1 13/1/1
f 15/2/2 16/2/2 17/2/2
f 17/2/2 16/2/2 18/2/2
f 19/2/2 20/2/2 22/2/2
f 21/2/2 22/2/2 23/2/2
f 22/2/2 20/2/2 24/2/2
f 23/2/2 22/2/2 24/2/2
f 25/1/2 26/1/2 27/1/2
f 27/1/2 26/1/2 28/1/2
f 33/2/3 30/2/3 29/2/3
f 34/2/3 30/2/3 33/2/3
f 35/1/3 32/1/3 31/1/3
f 36/1/3 32/1/3 35/1/3
f 41/2/3 38/2/3 37/2/3
f 42/2/3 38/2/3 41/2/3
f 43/2/3 40/2/3 39/2/3
f 44/2/3 40/2/3 43/2/3
f 45/1/4 46/1/4 47/1/4
f 47/1/4 46/1/4 48/1/4
f 49/2/4 50/2/4 53/2/4
f 53/2/4 50/2/4 54/2/4
f 51/2/4 52/2/4 55/2/4
f 55/2/4 52/2/4 56/2/4
f 59/2/5 58/2/5 57/2/5
f 60/2/5 58/2/5 59/2/5
f 63/2/5 62/2/5 61/2/5
f 64/2/5 62/2/5 63/2/5
f 67/2/5 66/2/5 65/2/5
f 68/2/5 66/2/5 67/2/5
f 71/1/5 70/1/5 69/1/5
f 72/1/5 70/1/5 71/1/5
f 73/2/6 74/2/6 75/2/6
f 75/2/6 74/2/6 76/2/6
f 77/2/6 78/2/6 79/2/6
f 79/2/6 78/2/6 80/2/6
f 81/1/6 82/1/6 83/1/6
f 83/1/6 82/1/6 84/1/6
