# MagicaVoxel @ Ephtracy

# material
mtllib cajado_de_batalha.mtl
usemtl palette

# normals
vn -1 0 0
vn 1 0 0
vn 0 0 1
vn 0 0 -1
vn 0 -1 0
vn 0 1 0

# texcoords
vt 0.947266 0.5
vt 0.974609 0.5
vt 0.978516 0.5

# verts
v 1 12 3
v 1 12 2
v 1 13 3
v 1 13 2
v 2 4 3
v 2 4 2
v 2 6 3
v 2 6 2
v 2 7 3
v 2 7 2
v 2 12 4
v 2 12 3
v 2 12 2
v 2 12 1
v 2 13 4
v 2 13 3
v 2 13 2
v 2 13 1
v 2 14 3
v 2 14 2
v 2 15 3
v 2 15 2
v 3 4 3
v 3 4 2
v 3 6 3
v 3 6 2
v 3 7 3
v 3 7 2
v 3 12 4
v 3 12 3
v 3 12 2
v 3 12 1
v 3 13 4
v 3 13 3
v 3 13 2
v 3 13 1
v 3 14 3
v 3 14 2
v 3 15 3
v 3 15 2
v 4 12 3
v 4 12 2
v 4 13 3
v 4 13 2
v 2 12 4
v 2 13 4
v 3 12 4
v 3 13 4
v 1 12 3
v 1 13 3
v 2 4 3
v 2 6 3
v 2 7 3
v 2 12 3
v 2 13 3
v 2 14 3
v 2 15 3
v 3 4 3
v 3 6 3
v 3 7 3
v 3 12 3
v 3 13 3
v 3 14 3
v 3 15 3
v 4 12 3
v 4 13 3
v 1 12 2
v 1 13 2
v 2 4 2
v 2 6 2
v 2 7 2
v 2 12 2
v 2 13 2
v 2 14 2
v 2 15 2
v 3 4 2
v 3 6 2
v 3 7 2
v 3 12 2
v 3 13 2
v 3 14 2
v 3 15 2
v 4 12 2
v 4 13 2
v 2 12 1
v 2 13 1
v 3 12 1
v 3 13 1
v 2 4 3
v 3 4 3
v 2 4 2
v 3 4 2
v 2 7 3
v 3 7 3
v 2 7 2
v 3 7 2
v 2 12 4
v 3 12 4
v 1 12 3
v 2 12 3
v 3 12 3
v 4 12 3
v 1 12 2
v 2 12 2
v 3 12 2
v 4 12 2
v 2 12 1
v 3 12 1
v 2 14 3
v 3 14 3
v 2 14 2
v 3 14 2
v 2 6 3
v 3 6 3
v 2 6 2
v 3 6 2
v 2 13 4
v 3 13 4
v 1 13 3
v 2 13 3
v 3 13 3
v 4 13 3
v 1 13 2
v 2 13 2
v 3 13 2
v 4 13 2
v 2 13 1
v 3 13 1
v 2 15 3
v 3 15 3
v 2 15 2
v 3 15 2

# faces
f 3/2/1 2/2/1 1/2/1
f 4/2/1 2/2/1 3/2/1
f 7/3/1 6/3/1 5/3/1
f 8/3/1 6/3/1 7/3/1
f 12/2/1 10/2/1 9/2/1
f 13/2/1 10/2/1 12/2/1
f 15/2/1 12/2/1 11/2/1
f 16/2/1 12/2/1 15/2/1
f 17/2/1 14/2/1 13/2/1
f 18/2/1 14/2/1 17/2/1
f 21/1/1 20/1/1 19/1/1
f 22/1/1 20/1/1 21/1/1
f 23/3/2 24/3/2 25/3/2
f 25/3/2 24/3/2 26/3/2
f 27/2/2 28/2/2 30/2/2
f 30/2/2 28/2/2 31/2/2
f 29/2/2 30/2/2 33/2/2
f 33/2/2 30/2/2 34/2/2
f 31/2/2 32/2/2 35/2/2
f 35/2/2 32/2/2 36/2/2
f 37/1/2 38/1/2 39/1/2
f 39/1/2 38/1/2 40/1/2
f 41/2/2 42/2/2 43/2/2
f 43/2/2 42/2/2 44/2/2
f 47/2/3 46/2/3 45/2/3
f 48/2/3 46/2/3 47/2/3
f 54/2/3 50/2/3 49/2/3
f 55/2/3 50/2/3 54/2/3
f 58/3/3 52/3/3 51/3/3
f 59/3/3 52/3/3 58/3/3
f 60/2/3 54/2/3 53/2/3
f 61/2/3 54/2/3 60/2/3
f 63/1/3 57/1/3 56/1/3
f 64/1/3 57/1/3 63/1/3
f 65/2/3 62/2/3 61/2/3
f 66/2/3 62/2/3 65/2/3
f 67/2/4 68/2/4 72/2/4
f 72/2/4 68/2/4 73/2/4
f 69/3/4 70/3/4 76/3/4
f 76/3/4 70/3/4 77/3/4
f 71/2/4 72/2/4 78/2/4
f 78/2/4 72/2/4 79/2/4
f 74/1/4 75/1/4 81/1/4
f 81/1/4 75/1/4 82/1/4
f 79/2/4 80/2/4 83/2/4
f 83/2/4 80/2/4 84/2/4
f 85/2/4 86/2/4 87/2/4
f 87/2/4 86/2/4 88/2/4
f 91/3/5 90/3/5 89/3/5
f 92/3/5 90/3/5 91/3/5
f 95/2/5 94/2/5 93/2/5
f 96/2/5 94/2/5 95/2/5
f 100/2/5 98/2/5 97/2/5
f 101/2/5 98/2/5 100/2/5
f 103/2/5 100/2/5 99/2/5
f 104/2/5 100/2/5 103/2/5
f 105/2/5 102/2/5 101/2/5
f 106/2/5 102/2/5 105/2/5
f 107/2/5 105/2/5 104/2/5
f 108/2/5 105/2/5 107/2/5
f 111/1/5 110/1/5 109/1/5
f 112/1/5 110/1/5 111/1/5
f 113/3/6 114/3/6 115/3/6
f 115/3/6 114/3/6 116/3/6
f 117/2/6 118/2/6 120/2/6
f 120/2/6 118/2/6 121/2/6
f 119/2/6 120/2/6 123/2/6
f 121/2/6 122/2/6 123/2/6
f 120/2/6 121/2/6 123/2/6
f 123/2/6 122/2/6 124/2/6
f 124/2/6 122/2/6 125/2/6
f 125/2/6 122/2/6 126/2/6
f 124/2/6 125/2/6 127/2/6
f 127/2/6 125/2/6 128/2/6
f 129/1/6 130/1/6 131/1/6
f 131/1/6 130/1/6 132/1/6
