# MagicaVoxel @ Ephtracy

# material
mtllib trapos_de_mago_eremita.mtl
usemtl palette

# normals
vn -1 0 0
vn 1 0 0
vn 0 0 1
vn 0 0 -1
vn 0 -1 0
vn 0 1 0

# texcoords
vt 0.0605469 0.5
vt 0.365234 0.5
vt 0.369141 0.5
vt 0.521484 0.5
vt 0.533203 0.5
vt 0.958984 0.5
vt 0.982422 0.5
vt 0.994141 0.5

# verts
v -3 3 -0
v -3 3 -1
v -3 6 -0
v -3 6 -1
v -3 7 1
v -3 7 -0
v -3 7 -1
v -3 7 -2
v -3 12 1
v -3 12 -2
v -2 0 -0
v -2 0 -1
v -2 1 -0
v -2 1 -1
v -2 3 1
v -2 3 -0
v -2 3 -1
v -2 3 -2
v -2 6 -0
v -2 6 -1
v -2 7 1
v -2 7 -0
v -2 7 -1
v -2 7 -2
v -2 7 -3
v -2 8 -2
v -2 8 -3
v -1 4 -2
v -1 4 -3
v -1 6 -2
v -1 6 -3
v -1 7 -2
v -1 7 -3
v 1 0 -0
v 1 0 -1
v 1 1 -0
v 1 1 -1
v 1 2 -0
v 1 2 -1
v 1 3 1
v 1 3 -0
v 1 4 -0
v 1 5 -0
v 1 6 -0
v 1 7 1
v 1 7 -0
v 2 6 3
v 2 6 1
v 2 7 3
v 2 7 1
v -1 0 -0
v -1 0 -1
v -1 1 -0
v -1 1 -1
v -1 2 -0
v -1 2 -1
v -1 3 1
v -1 3 -0
v -1 4 -0
v -1 5 -0
v -1 6 -0
v -1 7 1
v -1 7 -0
v 1 4 -2
v 1 4 -3
v 1 6 -2
v 1 6 -3
v 1 7 -2
v 1 7 -3
v 2 0 -0
v 2 0 -1
v 2 1 -0
v 2 1 -1
v 2 3 1
v 2 3 -0
v 2 3 -1
v 2 3 -2
v 2 6 1
v 2 6 -0
v 2 6 -1
v 2 7 -1
v 2 7 -2
v 2 7 -3
v 2 8 -2
v 2 8 -3
v 3 6 3
v 3 6 -0
v 3 6 -1
v 3 7 3
v 3 7 1
v 3 7 -0
v 3 7 -1
v 3 7 -2
v 3 12 1
v 3 12 -2
v 2 6 3
v 2 7 3
v 3 6 3
v 3 7 3
v -3 7 1
v -3 12 1
v -2 3 1
v -2 7 1
v -2 8 1
v -2 9 1
v -1 3 1
v -1 7 1
v -1 8 1
v -1 9 1
v 1 3 1
v 1 7 1
v 1 8 1
v 1 9 1
v 2 3 1
v 2 6 1
v 2 7 1
v 2 8 1
v 2 9 1
v 3 7 1
v 3 12 1
v -3 3 -0
v -3 6 -0
v -3 7 -0
v -2 0 -0
v -2 1 -0
v -2 3 -0
v -2 6 -0
v -2 7 -0
v -1 0 -0
v -1 1 -0
v -1 2 -0
v -1 3 -0
v -1 4 -0
v -1 5 -0
v -1 6 -0
v -1 7 -0
v 1 0 -0
v 1 1 -0
v 1 2 -0
v 1 3 -0
v 1 4 -0
v 1 5 -0
v 1 6 -0
v 1 7 -0
v 2 0 -0
v 2 1 -0
v 2 3 -0
v -3 3 -1
v -3 6 -1
v -3 7 -1
v -2 0 -1
v -2 1 -1
v -2 3 -1
v -2 6 -1
v -2 7 -1
v -1 0 -1
v -1 1 -1
v -1 2 -1
v 1 0 -1
v 1 1 -1
v 1 2 -1
v 2 0 -1
v 2 1 -1
v 2 3 -1
v 2 6 -1
v 2 7 -1
v 3 6 -1
v 3 7 -1
v -3 7 -2
v -3 12 -2
v -2 3 -2
v -2 7 -2
v -2 8 -2
v -1 4 -2
v -1 6 -2
v -1 7 -2
v 1 4 -2
v 1 6 -2
v 1 7 -2
v 2 3 -2
v 2 7 -2
v 2 8 -2
v 3 7 -2
v 3 12 -2
v -2 7 -3
v -2 8 -3
v -1 4 -3
v -1 6 -3
v -1 7 -3
v 1 4 -3
v 1 6 -3
v 1 7 -3
v 2 7 -3
v 2 8 -3
v -2 0 -0
v -1 0 -0
v 1 0 -0
v 2 0 -0
v -2 0 -1
v -1 0 -1
v 1 0 -1
v 2 0 -1
v -1 2 -0
v 1 2 -0
v -1 2 -1
v 1 2 -1
v -2 3 1
v -1 3 1
v 1 3 1
v 2 3 1
v -3 3 -0
v -2 3 -0
v -1 3 -0
v 1 3 -0
v 2 3 -0
v -3 3 -1
v -2 3 -1
v 2 3 -1
v -2 3 -2
v 2 3 -2
v -1 4 -2
v 1 4 -2
v -1 4 -3
v 1 4 -3
v 2 6 3
v 3 6 3
v 2 6 1
v 2 6 -0
v 3 6 -0
v 2 6 -1
v 3 6 -1
v -3 7 1
v -2 7 1
v -1 7 1
v 1 7 1
v -3 7 -0
v -2 7 -0
v -1 7 -0
v 1 7 -0
v -3 7 -1
v -2 7 -1
v 2 7 -1
v 3 7 -1
v -3 7 -2
v -2 7 -2
v -1 7 -2
v 1 7 -2
v 2 7 -2
v 3 7 -2
v -2 7 -3
v -1 7 -3
v 1 7 -3
v 2 7 -3
v 2 7 3
v 3 7 3
v 2 7 1
v 3 7 1
v -2 8 -2
v 2 8 -2
v -2 8 -3
v 2 8 -3
v -3 12 1
v 3 12 1
v -3 12 -2
v 3 12 -2

# faces
f 3/1/1 2/1/1 1/1/1
f 4/1/1 2/1/1 3/1/1
f 6/5/1 4/5/1 3/5/1
f 7/5/1 4/5/1 6/5/1
f 9/1/1 7/1/1 6/1/1
f 9/1/1 8/1/1 7/1/1
f 9/1/1 6/1/1 5/1/1
f 10/1/1 8/1/1 9/1/1
f 13/8/1 12/8/1 11/8/1
f 14/8/1 12/8/1 13/8/1
f 16/3/1 14/3/1 13/3/1
f 17/3/1 14/3/1 16/3/1
f 19/5/1 16/5/1 15/5/1
f 20/5/1 18/5/1 17/5/1
f 21/5/1 19/5/1 15/5/1
f 22/5/1 19/5/1 21/5/1
f 23/5/1 18/5/1 20/5/1
f 24/5/1 18/5/1 23/5/1
f 26/3/1 25/3/1 24/3/1
f 27/3/1 25/3/1 26/3/1
f 30/3/1 29/3/1 28/3/1
f 31/3/1 29/3/1 30/3/1
f 32/2/1 31/2/1 30/2/1
f 33/2/1 31/2/1 32/2/1
f 36/8/1 35/8/1 34/8/1
f 37/8/1 35/8/1 36/8/1
f 38/3/1 37/3/1 36/3/1
f 39/3/1 37/3/1 38/3/1
f 42/5/1 41/5/1 40/5/1
f 43/5/1 42/5/1 40/5/1
f 44/5/1 43/5/1 40/5/1
f 45/5/1 44/5/1 40/5/1
f 46/5/1 44/5/1 45/5/1
f 49/1/1 48/1/1 47/1/1
f 50/1/1 48/1/1 49/1/1
f 51/8/2 52/8/2 53/8/2
f 53/8/2 52/8/2 54/8/2
f 53/3/2 54/3/2 55/3/2
f 55/3/2 54/3/2 56/3/2
f 57/5/2 58/5/2 59/5/2
f 57/5/2 59/5/2 60/5/2
f 57/5/2 60/5/2 61/5/2
f 57/5/2 61/5/2 62/5/2
f 62/5/2 61/5/2 63/5/2
f 64/3/2 65/3/2 66/3/2
f 66/3/2 65/3/2 67/3/2
f 66/2/2 67/2/2 68/2/2
f 68/2/2 67/2/2 69/2/2
f 70/8/2 71/8/2 72/8/2
f 72/8/2 71/8/2 73/8/2
f 72/3/2 73/3/2 75/3/2
f 75/3/2 73/3/2 76/3/2
f 75/5/2 76/5/2 78/5/2
f 76/5/2 77/5/2 78/5/2
f 74/5/2 75/5/2 78/5/2
f 78/5/2 77/5/2 79/5/2
f 79/5/2 77/5/2 80/5/2
f 80/5/2 77/5/2 81/5/2
f 81/5/2 77/5/2 82/5/2
f 82/3/2 83/3/2 84/3/2
f 84/3/2 83/3/2 85/3/2
f 86/1/2 87/1/2 89/1/2
f 89/1/2 87/1/2 90/1/2
f 87/5/2 88/5/2 91/5/2
f 90/1/2 87/1/2 91/1/2
f 91/5/2 88/5/2 92/5/2
f 92/1/2 93/1/2 94/1/2
f 91/1/2 92/1/2 94/1/2
f 90/1/2 91/1/2 94/1/2
f 94/1/2 93/1/2 95/1/2
f 98/1/3 97/1/3 96/1/3
f 99/1/3 97/1/3 98/1/3
f 103/1/3 101/1/3 100/1/3
f 104/1/3 101/1/3 103/1/3
f 105/1/3 101/1/3 104/1/3
f 106/5/3 103/5/3 102/5/3
f 107/1/3 104/1/3 103/1/3
f 107/5/3 103/5/3 106/5/3
f 108/8/3 105/8/3 104/8/3
f 108/1/3 104/1/3 107/1/3
f 109/1/3 101/1/3 105/1/3
f 109/8/3 105/8/3 108/8/3
f 111/1/3 108/1/3 107/1/3
f 111/1/3 109/1/3 108/1/3
f 112/1/3 109/1/3 111/1/3
f 113/1/3 101/1/3 109/1/3
f 113/1/3 109/1/3 112/1/3
f 114/5/3 111/5/3 110/5/3
f 115/5/3 111/5/3 114/5/3
f 116/1/3 112/1/3 111/1/3
f 116/5/3 111/5/3 115/5/3
f 117/8/3 113/8/3 112/8/3
f 117/1/3 112/1/3 116/1/3
f 118/1/3 101/1/3 113/1/3
f 118/8/3 113/8/3 117/8/3
f 119/1/3 117/1/3 116/1/3
f 119/1/3 118/1/3 117/1/3
f 120/1/3 101/1/3 118/1/3
f 120/1/3 118/1/3 119/1/3
f 126/1/3 122/1/3 121/1/3
f 127/5/3 123/5/3 122/5/3
f 127/1/3 122/1/3 126/1/3
f 128/5/3 123/5/3 127/5/3
f 129/8/3 125/8/3 124/8/3
f 130/3/3 126/3/3 125/3/3
f 130/8/3 125/8/3 129/8/3
f 131/3/3 126/3/3 130/3/3
f 132/3/3 126/3/3 131/3/3
f 139/3/3 132/3/3 131/3/3
f 140/6/3 133/6/3 132/6/3
f 140/3/3 132/3/3 139/3/3
f 141/7/3 134/7/3 133/7/3
f 141/6/3 133/6/3 140/6/3
f 142/6/3 135/6/3 134/6/3
f 142/7/3 134/7/3 141/7/3
f 143/7/3 136/7/3 135/7/3
f 143/6/3 135/6/3 142/6/3
f 144/7/3 136/7/3 143/7/3
f 145/8/3 138/8/3 137/8/3
f 146/3/3 140/3/3 139/3/3
f 146/8/3 138/8/3 145/8/3
f 146/3/3 139/3/3 138/3/3
f 147/3/3 140/3/3 146/3/3
f 148/1/4 149/1/4 153/1/4
f 149/5/4 150/5/4 154/5/4
f 153/1/4 149/1/4 154/1/4
f 154/5/4 150/5/4 155/5/4
f 151/8/4 152/8/4 156/8/4
f 152/3/4 153/3/4 157/3/4
f 156/8/4 152/8/4 157/8/4
f 157/3/4 153/3/4 158/3/4
f 158/3/4 153/3/4 161/3/4
f 159/8/4 160/8/4 162/8/4
f 160/3/4 161/3/4 163/3/4
f 162/8/4 160/8/4 163/8/4
f 161/3/4 153/3/4 164/3/4
f 163/3/4 161/3/4 164/3/4
f 165/5/4 166/5/4 167/5/4
f 167/5/4 166/5/4 168/5/4
f 169/1/4 170/1/4 172/1/4
f 172/1/4 170/1/4 173/1/4
f 171/5/4 172/5/4 174/5/4
f 174/5/4 172/5/4 175/5/4
f 175/5/4 172/5/4 176/5/4
f 171/5/4 174/5/4 177/5/4
f 171/5/4 177/5/4 180/5/4
f 178/5/4 179/5/4 180/5/4
f 177/5/4 178/5/4 180/5/4
f 180/5/4 179/5/4 181/5/4
f 173/1/4 170/1/4 182/1/4
f 181/1/4 182/1/4 183/1/4
f 182/1/4 170/1/4 184/1/4
f 183/1/4 182/1/4 184/1/4
f 185/3/4 186/3/4 189/3/4
f 187/3/4 188/3/4 190/3/4
f 188/2/4 189/2/4 191/2/4
f 190/3/4 188/3/4 191/3/4
f 189/3/4 186/3/4 192/3/4
f 191/2/4 189/2/4 192/2/4
f 192/3/4 186/3/4 193/3/4
f 193/3/4 186/3/4 194/3/4
f 199/8/5 196/8/5 195/8/5
f 200/8/5 196/8/5 199/8/5
f 201/8/5 198/8/5 197/8/5
f 202/8/5 198/8/5 201/8/5
f 205/3/5 204/3/5 203/3/5
f 206/3/5 204/3/5 205/3/5
f 212/5/5 208/5/5 207/5/5
f 213/5/5 208/5/5 212/5/5
f 214/5/5 210/5/5 209/5/5
f 215/5/5 210/5/5 214/5/5
f 216/1/5 212/1/5 211/1/5
f 217/1/5 212/1/5 216/1/5
f 219/5/5 218/5/5 217/5/5
f 220/5/5 218/5/5 219/5/5
f 223/3/5 222/3/5 221/3/5
f 224/3/5 222/3/5 223/3/5
f 227/1/5 226/1/5 225/1/5
f 228/1/5 226/1/5 227/1/5
f 229/1/5 226/1/5 228/1/5
f 230/5/5 229/5/5 228/5/5
f 231/5/5 229/5/5 230/5/5
f 236/1/5 233/1/5 232/1/5
f 237/1/5 233/1/5 236/1/5
f 238/1/5 235/1/5 234/1/5
f 239/1/5 235/1/5 238/1/5
f 244/1/5 241/1/5 240/1/5
f 245/1/5 241/1/5 244/1/5
f 248/1/5 243/1/5 242/1/5
f 249/1/5 243/1/5 248/1/5
f 250/3/5 246/3/5 245/3/5
f 251/3/5 246/3/5 250/3/5
f 252/3/5 248/3/5 247/3/5
f 253/3/5 248/3/5 252/3/5
f 254/1/6 255/1/6 256/1/6
f 256/1/6 255/1/6 257/1/6
f 258/3/6 259/3/6 260/3/6
f 260/3/6 259/3/6 261/3/6
f 262/1/6 263/1/6 264/1/6
f 264/1/6 263/1/6 265/1/6
