# MagicaVoxel @ Ephtracy

# material
mtllib chao.mtl
usemtl palette

# normals
vn -1 0 0
vn 1 0 0
vn 0 0 1
vn 0 0 -1
vn 0 -1 0
vn 0 1 0

# texcoords
vt 0.982422 0.5
vt 0.986328 0.5

# verts
v -6 0 6
v -6 0 4
v -6 0 2
v -6 0 -2
v -6 0 -4
v -6 0 -6
v -6 1 6
v -6 1 4
v -6 1 2
v -6 1 -2
v -6 1 -4
v -6 1 -6
v -6 2 4
v -6 2 2
v -6 2 -2
v -6 2 -4
v -5 1 6
v -5 1 5
v -5 1 1
v -5 1 -1
v -5 1 -5
v -5 1 -6
v -5 2 6
v -5 2 5
v -5 2 1
v -5 2 -1
v -5 2 -5
v -5 2 -6
v -3 1 4
v -3 1 2
v -3 1 -2
v -3 1 -4
v -3 2 4
v -3 2 2
v -3 2 -2
v -3 2 -4
v -1 1 6
v -1 1 5
v -1 1 1
v -1 1 -1
v -1 1 -5
v -1 1 -6
v -1 2 6
v -1 2 5
v -1 2 1
v -1 2 -1
v -1 2 -5
v -1 2 -6
v 1 1 4
v 1 1 2
v 1 1 -2
v 1 1 -4
v 1 2 4
v 1 2 2
v 1 2 -2
v 1 2 -4
v 3 1 6
v 3 1 5
v 3 1 1
v 3 1 -1
v 3 1 -5
v 3 1 -6
v 3 2 6
v 3 2 5
v 3 2 1
v 3 2 -1
v 3 2 -5
v 3 2 -6
v 5 1 4
v 5 1 2
v 5 1 -2
v 5 1 -4
v 5 2 4
v 5 2 2
v 5 2 -2
v 5 2 -4
v -4 1 4
v -4 1 2
v -4 1 -2
v -4 1 -4
v -4 2 4
v -4 2 2
v -4 2 -2
v -4 2 -4
v -2 1 6
v -2 1 5
v -2 1 1
v -2 1 -1
v -2 1 -5
v -2 1 -6
v -2 2 6
v -2 2 5
v -2 2 1
v -2 2 -1
v -2 2 -5
v -2 2 -6
v 0 1 4
v 0 1 2
v 0 1 -2
v 0 1 -4
v 0 2 4
v 0 2 2
v 0 2 -2
v 0 2 -4
v 2 1 6
v 2 1 5
v 2 1 1
v 2 1 -1
v 2 1 -5
v 2 1 -6
v 2 2 6
v 2 2 5
v 2 2 1
v 2 2 -1
v 2 2 -5
v 2 2 -6
v 4 1 4
v 4 1 2
v 4 1 -2
v 4 1 -4
v 4 2 4
v 4 2 2
v 4 2 -2
v 4 2 -4
v 6 0 6
v 6 0 5
v 6 0 4
v 6 0 2
v 6 0 1
v 6 0 -1
v 6 0 -2
v 6 0 -4
v 6 0 -5
v 6 0 -6
v 6 1 5
v 6 1 4
v 6 1 2
v 6 1 1
v 6 1 -1
v 6 1 -2
v 6 1 -4
v 6 1 -5
v 6 2 6
v 6 2 5
v 6 2 4
v 6 2 2
v 6 2 1
v 6 2 -1
v 6 2 -2
v 6 2 -4
v 6 2 -5
v 6 2 -6
v -6 0 6
v -6 1 6
v -5 0 6
v -5 1 6
v -5 2 6
v -2 0 6
v -2 1 6
v -2 2 6
v -1 0 6
v -1 1 6
v -1 2 6
v 2 0 6
v 2 1 6
v 2 2 6
v 3 0 6
v 3 1 6
v 3 2 6
v 6 0 6
v 6 2 6
v -6 1 4
v -6 2 4
v -4 1 4
v -4 2 4
v -3 1 4
v -3 2 4
v 0 1 4
v 0 2 4
v 1 1 4
v 1 2 4
v 4 1 4
v 4 2 4
v 5 1 4
v 5 2 4
v 6 1 4
v 6 2 4
v -5 1 1
v -5 2 1
v -2 1 1
v -2 2 1
v -1 1 1
v -1 2 1
v 2 1 1
v 2 2 1
v 3 1 1
v 3 2 1
v 6 1 1
v 6 2 1
v -6 1 -2
v -6 2 -2
v -4 1 -2
v -4 2 -2
v -3 1 -2
v -3 2 -2
v 0 1 -2
v 0 2 -2
v 1 1 -2
v 1 2 -2
v 4 1 -2
v 4 2 -2
v 5 1 -2
v 5 2 -2
v 6 1 -2
v 6 2 -2
v -5 1 -5
v -5 2 -5
v -2 1 -5
v -2 2 -5
v -1 1 -5
v -1 2 -5
v 2 1 -5
v 2 2 -5
v 3 1 -5
v 3 2 -5
v 6 1 -5
v 6 2 -5
v -5 1 5
v -5 2 5
v -2 1 5
v -2 2 5
v -1 1 5
v -1 2 5
v 2 1 5
v 2 2 5
v 3 1 5
v 3 2 5
v 6 1 5
v 6 2 5
v -6 1 2
v -6 2 2
v -4 1 2
v -4 2 2
v -3 1 2
v -3 2 2
v 0 1 2
v 0 2 2
v 1 1 2
v 1 2 2
v 4 1 2
v 4 2 2
v 5 1 2
v 5 2 2
v 6 1 2
v 6 2 2
v -5 1 -1
v -5 2 -1
v -2 1 -1
v -2 2 -1
v -1 1 -1
v -1 2 -1
v 2 1 -1
v 2 2 -1
v 3 1 -1
v 3 2 -1
v 6 1 -1
v 6 2 -1
v -6 1 -4
v -6 2 -4
v -4 1 -4
v -4 2 -4
v -3 1 -4
v -3 2 -4
v 0 1 -4
v 0 2 -4
v 1 1 -4
v 1 2 -4
v 4 1 -4
v 4 2 -4
v 5 1 -4
v 5 2 -4
v 6 1 -4
v 6 2 -4
v -6 0 -6
v -6 1 -6
v -5 0 -6
v -5 1 -6
v -5 2 -6
v -2 0 -6
v -2 1 -6
v -2 2 -6
v -1 0 -6
v -1 1 -6
v -1 2 -6
v 2 0 -6
v 2 1 -6
v 2 2 -6
v 3 0 -6
v 3 1 -6
v 3 2 -6
v 6 0 -6
v 6 2 -6
v -6 0 6
v -5 0 6
v -2 0 6
v -1 0 6
v 2 0 6
v 3 0 6
v 6 0 6
v -5 0 5
v -2 0 5
v -1 0 5
v 2 0 5
v 3 0 5
v 6 0 5
v -6 0 4
v -4 0 4
v -3 0 4
v 0 0 4
v 1 0 4
v 4 0 4
v 5 0 4
v 6 0 4
v -6 0 2
v -4 0 2
v -3 0 2
v 0 0 2
v 1 0 2
v 4 0 2
v 5 0 2
v 6 0 2
v -5 0 1
v -2 0 1
v -1 0 1
v 2 0 1
v 3 0 1
v 6 0 1
v -5 0 -1
v -2 0 -1
v -1 0 -1
v 2 0 -1
v 3 0 -1
v 6 0 -1
v -6 0 -2
v -4 0 -2
v -3 0 -2
v 0 0 -2
v 1 0 -2
v 4 0 -2
v 5 0 -2
v 6 0 -2
v -6 0 -4
v -4 0 -4
v -3 0 -4
v 0 0 -4
v 1 0 -4
v 4 0 -4
v 5 0 -4
v 6 0 -4
v -5 0 -5
v -2 0 -5
v -1 0 -5
v 2 0 -5
v 3 0 -5
v 6 0 -5
v -6 0 -6
v -5 0 -6
v -2 0 -6
v -1 0 -6
v 2 0 -6
v 3 0 -6
v 6 0 -6
v -6 1 6
v -5 1 6
v -2 1 6
v -1 1 6
v 2 1 6
v 3 1 6
v -5 1 5
v -2 1 5
v -1 1 5
v 2 1 5
v 3 1 5
v 6 1 5
v -6 1 4
v -4 1 4
v -3 1 4
v 0 1 4
v 1 1 4
v 4 1 4
v 5 1 4
v 6 1 4
v -6 1 2
v -4 1 2
v -3 1 2
v 0 1 2
v 1 1 2
v 4 1 2
v 5 1 2
v 6 1 2
v -5 1 1
v -2 1 1
v -1 1 1
v 2 1 1
v 3 1 1
v 6 1 1
v -5 1 -1
v -2 1 -1
v -1 1 -1
v 2 1 -1
v 3 1 -1
v 6 1 -1
v -6 1 -2
v -4 1 -2
v -3 1 -2
v 0 1 -2
v 1 1 -2
v 4 1 -2
v 5 1 -2
v 6 1 -2
v -6 1 -4
v -4 1 -4
v -3 1 -4
v 0 1 -4
v 1 1 -4
v 4 1 -4
v 5 1 -4
v 6 1 -4
v -5 1 -5
v -2 1 -5
v -1 1 -5
v 2 1 -5
v 3 1 -5
v 6 1 -5
v -6 1 -6
v -5 1 -6
v -2 1 -6
v -1 1 -6
v 2 1 -6
v 3 1 -6
v -5 2 6
v -2 2 6
v -1 2 6
v 2 2 6
v 3 2 6
v 6 2 6
v -5 2 5
v -2 2 5
v -1 2 5
v 2 2 5
v 3 2 5
v 6 2 5
v -6 2 4
v -4 2 4
v -3 2 4
v 0 2 4
v 1 2 4
v 4 2 4
v 5 2 4
v 6 2 4
v -6 2 2
v -4 2 2
v -3 2 2
v 0 2 2
v 1 2 2
v 4 2 2
v 5 2 2
v 6 2 2
v -5 2 1
v -2 2 1
v -1 2 1
v 2 2 1
v 3 2 1
v 6 2 1
v -5 2 -1
v -2 2 -1
v -1 2 -1
v 2 2 -1
v 3 2 -1
v 6 2 -1
v -6 2 -2
v -4 2 -2
v -3 2 -2
v 0 2 -2
v 1 2 -2
v 4 2 -2
v 5 2 -2
v 6 2 -2
v -6 2 -4
v -4 2 -4
v -3 2 -4
v 0 2 -4
v 1 2 -4
v 4 2 -4
v 5 2 -4
v 6 2 -4
v -5 2 -5
v -2 2 -5
v -1 2 -5
v 2 2 -5
v 3 2 -5
v 6 2 -5
v -5 2 -6
v -2 2 -6
v -1 2 -6
v 2 2 -6
v 3 2 -6
v 6 2 -6

# faces
f 7/2/1 2/2/1 1/2/1
f 8/1/1 3/1/1 2/1/1
f 8/2/1 2/2/1 7/2/1
f 9/2/1 4/2/1 3/2/1
f 9/1/1 3/1/1 8/1/1
f 10/1/1 5/1/1 4/1/1
f 10/2/1 4/2/1 9/2/1
f 11/2/1 6/2/1 5/2/1
f 11/1/1 5/1/1 10/1/1
f 12/2/1 6/2/1 11/2/1
f 13/1/1 9/1/1 8/1/1
f 14/1/1 9/1/1 13/1/1
f 15/1/1 11/1/1 10/1/1
f 16/1/1 11/1/1 15/1/1
f 23/1/1 18/1/1 17/1/1
f 24/1/1 18/1/1 23/1/1
f 25/1/1 20/1/1 19/1/1
f 26/1/1 20/1/1 25/1/1
f 27/1/1 22/1/1 21/1/1
f 28/1/1 22/1/1 27/1/1
f 33/1/1 30/1/1 29/1/1
f 34/1/1 30/1/1 33/1/1
f 35/1/1 32/1/1 31/1/1
f 36/1/1 32/1/1 35/1/1
f 43/1/1 38/1/1 37/1/1
f 44/1/1 38/1/1 43/1/1
f 45/1/1 40/1/1 39/1/1
f 46/1/1 40/1/1 45/1/1
f 47/1/1 42/1/1 41/1/1
f 48/1/1 42/1/1 47/1/1
f 53/1/1 50/1/1 49/1/1
f 54/1/1 50/1/1 53/1/1
f 55/1/1 52/1/1 51/1/1
f 56/1/1 52/1/1 55/1/1
f 63/1/1 58/1/1 57/1/1
f 64/1/1 58/1/1 63/1/1
f 65/1/1 60/1/1 59/1/1
f 66/1/1 60/1/1 65/1/1
f 67/1/1 62/1/1 61/1/1
f 68/1/1 62/1/1 67/1/1
f 73/1/1 70/1/1 69/1/1
f 74/1/1 70/1/1 73/1/1
f 75/1/1 72/1/1 71/1/1
f 76/1/1 72/1/1 75/1/1
f 77/1/2 78/1/2 81/1/2
f 81/1/2 78/1/2 82/1/2
f 79/1/2 80/1/2 83/1/2
f 83/1/2 80/1/2 84/1/2
f 85/1/2 86/1/2 91/1/2
f 91/1/2 86/1/2 92/1/2
f 87/1/2 88/1/2 93/1/2
f 93/1/2 88/1/2 94/1/2
f 89/1/2 90/1/2 95/1/2
f 95/1/2 90/1/2 96/1/2
f 97/1/2 98/1/2 101/1/2
f 101/1/2 98/1/2 102/1/2
f 99/1/2 100/1/2 103/1/2
f 103/1/2 100/1/2 104/1/2
f 105/1/2 106/1/2 111/1/2
f 111/1/2 106/1/2 112/1/2
f 107/1/2 108/1/2 113/1/2
f 113/1/2 108/1/2 114/1/2
f 109/1/2 110/1/2 115/1/2
f 115/1/2 110/1/2 116/1/2
f 117/1/2 118/1/2 121/1/2
f 121/1/2 118/1/2 122/1/2
f 119/1/2 120/1/2 123/1/2
f 123/1/2 120/1/2 124/1/2
f 125/1/2 126/1/2 135/1/2
f 126/2/2 127/2/2 135/2/2
f 127/1/2 128/1/2 136/1/2
f 135/2/2 127/2/2 136/2/2
f 128/2/2 129/2/2 137/2/2
f 136/1/2 128/1/2 137/1/2
f 129/1/2 130/1/2 138/1/2
f 137/2/2 129/2/2 138/2/2
f 130/2/2 131/2/2 139/2/2
f 138/1/2 130/1/2 139/1/2
f 131/1/2 132/1/2 140/1/2
f 139/2/2 131/2/2 140/2/2
f 132/2/2 133/2/2 141/2/2
f 140/1/2 132/1/2 141/1/2
f 133/1/2 134/1/2 142/1/2
f 141/2/2 133/2/2 142/2/2
f 125/1/2 135/1/2 143/1/2
f 143/1/2 135/1/2 144/1/2
f 136/1/2 137/1/2 145/1/2
f 145/1/2 137/1/2 146/1/2
f 138/1/2 139/1/2 147/1/2
f 147/1/2 139/1/2 148/1/2
f 140/1/2 141/1/2 149/1/2
f 149/1/2 141/1/2 150/1/2
f 142/1/2 134/1/2 151/1/2
f 151/1/2 134/1/2 152/1/2
f 155/2/3 154/2/3 153/2/3
f 156/2/3 154/2/3 155/2/3
f 158/1/3 156/1/3 155/1/3
f 158/1/3 157/1/3 156/1/3
f 159/1/3 157/1/3 158/1/3
f 160/1/3 157/1/3 159/1/3
f 161/2/3 159/2/3 158/2/3
f 162/2/3 159/2/3 161/2/3
f 164/1/3 162/1/3 161/1/3
f 164/1/3 163/1/3 162/1/3
f 165/1/3 163/1/3 164/1/3
f 166/1/3 163/1/3 165/1/3
f 167/2/3 165/2/3 164/2/3
f 168/2/3 165/2/3 167/2/3
f 170/1/3 168/1/3 167/1/3
f 170/1/3 169/1/3 168/1/3
f 171/1/3 169/1/3 170/1/3
f 174/1/3 173/1/3 172/1/3
f 175/1/3 173/1/3 174/1/3
f 178/1/3 177/1/3 176/1/3
f 179/1/3 177/1/3 178/1/3
f 182/1/3 181/1/3 180/1/3
f 183/1/3 181/1/3 182/1/3
f 186/1/3 185/1/3 184/1/3
f 187/1/3 185/1/3 186/1/3
f 190/1/3 189/1/3 188/1/3
f 191/1/3 189/1/3 190/1/3
f 194/1/3 193/1/3 192/1/3
f 195/1/3 193/1/3 194/1/3
f 198/1/3 197/1/3 196/1/3
f 199/1/3 197/1/3 198/1/3
f 202/1/3 201/1/3 200/1/3
f 203/1/3 201/1/3 202/1/3
f 206/1/3 205/1/3 204/1/3
f 207/1/3 205/1/3 206/1/3
f 210/1/3 209/1/3 208/1/3
f 211/1/3 209/1/3 210/1/3
f 214/1/3 213/1/3 212/1/3
f 215/1/3 213/1/3 214/1/3
f 218/1/3 217/1/3 216/1/3
f 219/1/3 217/1/3 218/1/3
f 222/1/3 221/1/3 220/1/3
f 223/1/3 221/1/3 222/1/3
f 226/1/3 225/1/3 224/1/3
f 227/1/3 225/1/3 226/1/3
f 228/1/4 229/1/4 230/1/4
f 230/1/4 229/1/4 231/1/4
f 232/1/4 233/1/4 234/1/4
f 234/1/4 233/1/4 235/1/4
f 236/1/4 237/1/4 238/1/4
f 238/1/4 237/1/4 239/1/4
f 240/1/4 241/1/4 242/1/4
f 242/1/4 241/1/4 243/1/4
f 244/1/4 245/1/4 246/1/4
f 246/1/4 245/1/4 247/1/4
f 248/1/4 249/1/4 250/1/4
f 250/1/4 249/1/4 251/1/4
f 252/1/4 253/1/4 254/1/4
f 254/1/4 253/1/4 255/1/4
f 256/1/4 257/1/4 258/1/4
f 258/1/4 257/1/4 259/1/4
f 260/1/4 261/1/4 262/1/4
f 262/1/4 261/1/4 263/1/4
f 264/1/4 265/1/4 266/1/4
f 266/1/4 265/1/4 267/1/4
f 268/1/4 269/1/4 270/1/4
f 270/1/4 269/1/4 271/1/4
f 272/1/4 273/1/4 274/1/4
f 274/1/4 273/1/4 275/1/4
f 276/1/4 277/1/4 278/1/4
f 278/1/4 277/1/4 279/1/4
f 280/1/4 281/1/4 282/1/4
f 282/1/4 281/1/4 283/1/4
f 284/2/4 285/2/4 286/2/4
f 286/2/4 285/2/4 287/2/4
f 286/1/4 287/1/4 289/1/4
f 287/1/4 288/1/4 289/1/4
f 289/1/4 288/1/4 290/1/4
f 290/1/4 288/1/4 291/1/4
f 289/2/4 290/2/4 292/2/4
f 292/2/4 290/2/4 293/2/4
f 292/1/4 293/1/4 295/1/4
f 293/1/4 294/1/4 295/1/4
f 295/1/4 294/1/4 296/1/4
f 296/1/4 294/1/4 297/1/4
f 295/2/4 296/2/4 298/2/4
f 298/2/4 296/2/4 299/2/4
f 298/1/4 299/1/4 301/1/4
f 299/1/4 300/1/4 301/1/4
f 301/1/4 300/1/4 302/1/4
f 310/2/5 304/2/5 303/2/5
f 310/1/5 305/1/5 304/1/5
f 311/2/5 306/2/5 305/2/5
f 311/1/5 305/1/5 310/1/5
f 312/1/5 307/1/5 306/1/5
f 312/2/5 306/2/5 311/2/5
f 313/2/5 308/2/5 307/2/5
f 313/1/5 307/1/5 312/1/5
f 314/1/5 309/1/5 308/1/5
f 314/2/5 308/2/5 313/2/5
f 315/1/5 309/1/5 314/1/5
f 316/2/5 313/2/5 312/2/5
f 316/2/5 312/2/5 311/2/5
f 316/2/5 315/2/5 314/2/5
f 316/2/5 314/2/5 313/2/5
f 316/2/5 311/2/5 310/2/5
f 316/2/5 310/2/5 303/2/5
f 317/2/5 315/2/5 316/2/5
f 318/2/5 315/2/5 317/2/5
f 319/2/5 315/2/5 318/2/5
f 320/2/5 315/2/5 319/2/5
f 321/2/5 315/2/5 320/2/5
f 322/2/5 315/2/5 321/2/5
f 323/2/5 315/2/5 322/2/5
f 324/1/5 317/1/5 316/1/5
f 325/2/5 318/2/5 317/2/5
f 325/1/5 317/1/5 324/1/5
f 326/1/5 319/1/5 318/1/5
f 326/2/5 318/2/5 325/2/5
f 327/2/5 320/2/5 319/2/5
f 327/1/5 319/1/5 326/1/5
f 328/1/5 321/1/5 320/1/5
f 328/2/5 320/2/5 327/2/5
f 329/2/5 322/2/5 321/2/5
f 329/1/5 321/1/5 328/1/5
f 330/1/5 323/1/5 322/1/5
f 330/2/5 322/2/5 329/2/5
f 331/1/5 323/1/5 330/1/5
f 332/2/5 325/2/5 324/2/5
f 332/2/5 326/2/5 325/2/5
f 332/2/5 331/2/5 330/2/5
f 332/2/5 330/2/5 329/2/5
f 332/2/5 329/2/5 328/2/5
f 332/2/5 328/2/5 327/2/5
f 332/2/5 327/2/5 326/2/5
f 333/2/5 331/2/5 332/2/5
f 334/2/5 331/2/5 333/2/5
f 335/2/5 331/2/5 334/2/5
f 336/2/5 331/2/5 335/2/5
f 337/2/5 331/2/5 336/2/5
f 338/2/5 332/2/5 324/2/5
f 338/1/5 333/1/5 332/1/5
f 339/2/5 334/2/5 333/2/5
f 339/1/5 333/1/5 338/1/5
f 340/1/5 335/1/5 334/1/5
f 340/2/5 334/2/5 339/2/5
f 341/2/5 336/2/5 335/2/5
f 341/1/5 335/1/5 340/1/5
f 342/1/5 337/1/5 336/1/5
f 342/2/5 336/2/5 341/2/5
f 343/1/5 337/1/5 342/1/5
f 344/2/5 341/2/5 340/2/5
f 344/2/5 338/2/5 324/2/5
f 344/2/5 343/2/5 342/2/5
f 344/2/5 342/2/5 341/2/5
f 344/2/5 340/2/5 339/2/5
f 344/2/5 339/2/5 338/2/5
f 345/2/5 343/2/5 344/2/5
f 346/2/5 343/2/5 345/2/5
f 347/2/5 343/2/5 346/2/5
f 348/2/5 343/2/5 347/2/5
f 349/2/5 343/2/5 348/2/5
f 350/2/5 343/2/5 349/2/5
f 351/2/5 343/2/5 350/2/5
f 352/1/5 345/1/5 344/1/5
f 353/2/5 346/2/5 345/2/5
f 353/1/5 345/1/5 352/1/5
f 354/1/5 347/1/5 346/1/5
f 354/2/5 346/2/5 353/2/5
f 355/2/5 348/2/5 347/2/5
f 355/1/5 347/1/5 354/1/5
f 356/1/5 349/1/5 348/1/5
f 356/2/5 348/2/5 355/2/5
f 357/2/5 350/2/5 349/2/5
f 357/1/5 349/1/5 356/1/5
f 358/1/5 351/1/5 350/1/5
f 358/2/5 350/2/5 357/2/5
f 359/1/5 351/1/5 358/1/5
f 360/2/5 353/2/5 352/2/5
f 360/2/5 354/2/5 353/2/5
f 360/2/5 359/2/5 358/2/5
f 360/2/5 358/2/5 357/2/5
f 360/2/5 357/2/5 356/2/5
f 360/2/5 356/2/5 355/2/5
f 360/2/5 355/2/5 354/2/5
f 361/2/5 359/2/5 360/2/5
f 362/2/5 359/2/5 361/2/5
f 363/2/5 359/2/5 362/2/5
f 364/2/5 359/2/5 363/2/5
f 365/2/5 359/2/5 364/2/5
f 366/2/5 360/2/5 352/2/5
f 367/1/5 361/1/5 360/1/5
f 367/2/5 360/2/5 366/2/5
f 368/2/5 362/2/5 361/2/5
f 368/1/5 361/1/5 367/1/5
f 369/1/5 363/1/5 362/1/5
f 369/2/5 362/2/5 368/2/5
f 370/2/5 364/2/5 363/2/5
f 370/1/5 363/1/5 369/1/5
f 371/1/5 365/1/5 364/1/5
f 371/2/5 364/2/5 370/2/5
f 372/1/5 365/1/5 371/1/5
f 373/2/6 374/2/6 379/2/6
f 375/2/6 376/2/6 380/2/6
f 380/2/6 376/2/6 381/2/6
f 377/2/6 378/2/6 382/2/6
f 382/2/6 378/2/6 383/2/6
f 380/2/6 381/2/6 385/2/6
f 383/2/6 384/2/6 385/2/6
f 382/2/6 383/2/6 385/2/6
f 381/2/6 382/2/6 385/2/6
f 373/2/6 379/2/6 385/2/6
f 379/2/6 380/2/6 385/2/6
f 385/2/6 384/2/6 386/2/6
f 386/2/6 384/2/6 387/2/6
f 387/2/6 384/2/6 388/2/6
f 388/2/6 384/2/6 389/2/6
f 389/2/6 384/2/6 390/2/6
f 390/2/6 384/2/6 391/2/6
f 391/2/6 384/2/6 392/2/6
f 386/2/6 387/2/6 394/2/6
f 394/2/6 387/2/6 395/2/6
f 388/2/6 389/2/6 396/2/6
f 396/2/6 389/2/6 397/2/6
f 390/2/6 391/2/6 398/2/6
f 398/2/6 391/2/6 399/2/6
f 394/2/6 395/2/6 401/2/6
f 399/2/6 400/2/6 401/2/6
f 398/2/6 399/2/6 401/2/6
f 397/2/6 398/2/6 401/2/6
f 396/2/6 397/2/6 401/2/6
f 395/2/6 396/2/6 401/2/6
f 393/2/6 394/2/6 401/2/6
f 401/2/6 400/2/6 402/2/6
f 402/2/6 400/2/6 403/2/6
f 403/2/6 400/2/6 404/2/6
f 404/2/6 400/2/6 405/2/6
f 405/2/6 400/2/6 406/2/6
f 393/2/6 401/2/6 407/2/6
f 402/2/6 403/2/6 408/2/6
f 408/2/6 403/2/6 409/2/6
f 404/2/6 405/2/6 410/2/6
f 410/2/6 405/2/6 411/2/6
f 408/2/6 409/2/6 413/2/6
f 411/2/6 412/2/6 413/2/6
f 410/2/6 411/2/6 413/2/6
f 409/2/6 410/2/6 413/2/6
f 393/2/6 407/2/6 413/2/6
f 407/2/6 408/2/6 413/2/6
f 413/2/6 412/2/6 414/2/6
f 414/2/6 412/2/6 415/2/6
f 415/2/6 412/2/6 416/2/6
f 416/2/6 412/2/6 417/2/6
f 417/2/6 412/2/6 418/2/6
f 418/2/6 412/2/6 419/2/6
f 419/2/6 412/2/6 420/2/6
f 414/2/6 415/2/6 422/2/6
f 422/2/6 415/2/6 423/2/6
f 416/2/6 417/2/6 424/2/6
f 424/2/6 417/2/6 425/2/6
f 418/2/6 419/2/6 426/2/6
f 426/2/6 419/2/6 427/2/6
f 422/2/6 423/2/6 429/2/6
f 427/2/6 428/2/6 429/2/6
f 426/2/6 427/2/6 429/2/6
f 425/2/6 426/2/6 429/2/6
f 424/2/6 425/2/6 429/2/6
f 423/2/6 424/2/6 429/2/6
f 421/2/6 422/2/6 429/2/6
f 429/2/6 428/2/6 430/2/6
f 430/2/6 428/2/6 431/2/6
f 431/2/6 428/2/6 432/2/6
f 432/2/6 428/2/6 433/2/6
f 433/2/6 428/2/6 434/2/6
f 421/2/6 429/2/6 435/2/6
f 435/2/6 429/2/6 436/2/6
f 430/2/6 431/2/6 437/2/6
f 437/2/6 431/2/6 438/2/6
f 432/2/6 433/2/6 439/2/6
f 439/2/6 433/2/6 440/2/6
f 441/1/6 442/1/6 447/1/6
f 447/1/6 442/1/6 448/1/6
f 443/1/6 444/1/6 449/1/6
f 449/1/6 444/1/6 450/1/6
f 445/1/6 446/1/6 451/1/6
f 451/1/6 446/1/6 452/1/6
f 453/1/6 454/1/6 461/1/6
f 461/1/6 454/1/6 462/1/6
f 455/1/6 456/1/6 463/1/6
f 463/1/6 456/1/6 464/1/6
f 457/1/6 458/1/6 465/1/6
f 465/1/6 458/1/6 466/1/6
f 459/1/6 460/1/6 467/1/6
f 467/1/6 460/1/6 468/1/6
f 469/1/6 470/1/6 475/1/6
f 475/1/6 470/1/6 476/1/6
f 471/1/6 472/1/6 477/1/6
f 477/1/6 472/1/6 478/1/6
f 473/1/6 474/1/6 479/1/6
f 479/1/6 474/1/6 480/1/6
f 481/1/6 482/1/6 489/1/6
f 489/1/6 482/1/6 490/1/6
f 483/1/6 484/1/6 491/1/6
f 491/1/6 484/1/6 492/1/6
f 485/1/6 486/1/6 493/1/6
f 493/1/6 486/1/6 494/1/6
f 487/1/6 488/1/6 495/1/6
f 495/1/6 488/1/6 496/1/6
f 497/1/6 498/1/6 503/1/6
f 503/1/6 498/1/6 504/1/6
f 499/1/6 500/1/6 505/1/6
f 505/1/6 500/1/6 506/1/6
f 501/1/6 502/1/6 507/1/6
f 507/1/6 502/1/6 508/1/6
