# MagicaVoxel @ Ephtracy

# material
mtllib cogumelo.mtl
usemtl palette

# normals
vn -1 0 0
vn 1 0 0
vn 0 0 1
vn 0 0 -1
vn 0 -1 0
vn 0 1 0

# texcoords
vt 0.974609 0.5
vt 0.978516 0.5

# verts
v -10 1 -7
v -10 1 -8
v -10 1 -9
v -10 1 -10
v -10 2 -8
v -10 2 -9
v -10 3 -7
v -10 3 -10
v -9 0 -8
v -9 0 -9
v -9 1 -8
v -9 1 -9
v -8 0 -8
v -8 0 -9
v -8 1 -8
v -8 1 -9
v -7 1 -7
v -7 1 -8
v -7 1 -9
v -7 1 -10
v -7 2 -8
v -7 2 -9
v -7 3 -7
v -7 3 -10
v -10 1 -7
v -10 3 -7
v -9 1 -7
v -9 2 -7
v -8 1 -7
v -8 2 -7
v -7 1 -7
v -7 3 -7
v -9 0 -8
v -9 1 -8
v -8 0 -8
v -8 1 -8
v -9 0 -9
v -9 1 -9
v -8 0 -9
v -8 1 -9
v -10 1 -10
v -10 3 -10
v -9 1 -10
v -9 2 -10
v -8 1 -10
v -8 2 -10
v -7 1 -10
v -7 3 -10
v -9 0 -8
v -8 0 -8
v -9 0 -9
v -8 0 -9
v -10 1 -7
v -9 1 -7
v -8 1 -7
v -7 1 -7
v -10 1 -8
v -9 1 -8
v -8 1 -8
v -7 1 -8
v -10 1 -9
v -9 1 -9
v -8 1 -9
v -7 1 -9
v -10 1 -10
v -9 1 -10
v -8 1 -10
v -7 1 -10
v -10 3 -7
v -7 3 -7
v -9 3 -8
v -8 3 -8
v -9 3 -9
v -8 3 -9
v -10 3 -10
v -7 3 -10

# faces
f 5/2/1 2/2/1 1/2/1
f 5/1/1 3/1/1 2/1/1
f 6/2/1 4/2/1 3/2/1
f 6/1/1 3/1/1 5/1/1
f 7/2/1 5/2/1 1/2/1
f 7/2/1 6/2/1 5/2/1
f 8/2/1 4/2/1 6/2/1
f 8/2/1 6/2/1 7/2/1
f 11/1/1 10/1/1 9/1/1
f 12/1/1 10/1/1 11/1/1
f 13/1/2 14/1/2 15/1/2
f 15/1/2 14/1/2 16/1/2
f 17/2/2 18/2/2 21/2/2
f 18/1/2 19/1/2 21/1/2
f 19/2/2 20/2/2 22/2/2
f 21/1/2 19/1/2 22/1/2
f 17/2/2 21/2/2 23/2/2
f 21/2/2 22/2/2 23/2/2
f 22/2/2 20/2/2 24/2/2
f 23/2/2 22/2/2 24/2/2
f 27/2/3 26/2/3 25/2/3
f 28/2/3 26/2/3 27/2/3
f 29/1/3 28/1/3 27/1/3
f 30/2/3 26/2/3 28/2/3
f 30/1/3 28/1/3 29/1/3
f 31/2/3 30/2/3 29/2/3
f 32/2/3 26/2/3 30/2/3
f 32/2/3 30/2/3 31/2/3
f 35/1/3 34/1/3 33/1/3
f 36/1/3 34/1/3 35/1/3
f 37/1/4 38/1/4 39/1/4
f 39/1/4 38/1/4 40/1/4
f 41/2/4 42/2/4 43/2/4
f 43/2/4 42/2/4 44/2/4
f 43/1/4 44/1/4 45/1/4
f 44/2/4 42/2/4 46/2/4
f 45/1/4 44/1/4 46/1/4
f 45/2/4 46/2/4 47/2/4
f 46/2/4 42/2/4 48/2/4
f 47/2/4 46/2/4 48/2/4
f 51/1/5 50/1/5 49/1/5
f 52/1/5 50/1/5 51/1/5
f 57/2/5 54/2/5 53/2/5
f 58/1/5 55/1/5 54/1/5
f 58/2/5 54/2/5 57/2/5
f 59/2/5 56/2/5 55/2/5
f 59/1/5 55/1/5 58/1/5
f 60/2/5 56/2/5 59/2/5
f 61/1/5 58/1/5 57/1/5
f 62/1/5 58/1/5 61/1/5
f 63/1/5 60/1/5 59/1/5
f 64/1/5 60/1/5 63/1/5
f 65/2/5 62/2/5 61/2/5
f 66/1/5 63/1/5 62/1/5
f 66/2/5 62/2/5 65/2/5
f 67/2/5 64/2/5 63/2/5
f 67/1/5 63/1/5 66/1/5
f 68/2/5 64/2/5 67/2/5
f 69/2/6 70/2/6 71/2/6
f 71/2/6 70/2/6 72/2/6
f 69/2/6 71/2/6 73/2/6
f 71/1/6 72/1/6 73/1/6
f 72/2/6 70/2/6 74/2/6
f 73/1/6 72/1/6 74/1/6
f 69/2/6 73/2/6 75/2/6
f 73/2/6 74/2/6 75/2/6
f 74/2/6 70/2/6 76/2/6
f 75/2/6 74/2/6 76/2/6
