# MagicaVoxel @ Ephtracy

# group
g inimigo_2

# material
mtllib inimigo_2.mtl
usemtl palette

# normals
vn -1 0 0
vn 1 0 0
vn 0 0 1
vn 0 0 -1
vn 0 -1 0
vn 0 1 0

# texcoords
vt 0.146484 0.5
vt 0.310547 0.5
vt 0.439453 0.5
vt 0.927734 0.5
vt 0.935547 0.5
vt 0.943359 0.5

# verts
v -9 6 -1
v -9 6 -3
v -9 9 -1
v -9 9 -3
v -8 9 -1
v -8 9 -3
v -8 10 -1
v -8 10 -3
v -7 10 -1
v -7 10 -3
v -7 11 -1
v -7 11 -3
v -5 15 -1
v -5 15 -3
v -5 17 -2
v -5 17 -3
v -5 18 -1
v -5 18 -2
v -4 0 -1
v -4 0 -4
v -4 1 -1
v -4 1 -4
v -4 5 -1
v -4 5 -3
v -4 6 -3
v -4 6 -5
v -4 8 -1
v -4 8 -5
v -4 10 -0
v -4 10 -1
v -4 11 -0
v -4 11 -1
v -3 0 -4
v -3 0 -5
v -3 1 -1
v -3 1 -2
v -3 1 -4
v -3 1 -5
v -3 5 -1
v -3 5 -2
v -3 5 -3
v -3 5 -4
v -3 6 -0
v -3 6 -1
v -3 6 -3
v -3 6 -4
v -3 6 -5
v -3 6 -6
v -3 8 -0
v -3 8 -1
v -3 8 -5
v -3 8 -6
v -3 9 -1
v -3 9 -3
v -3 10 -3
v -3 10 -4
v -3 10 -5
v -3 11 -3
v -3 11 -4
v -3 14 -0
v -3 14 -1
v -3 14 -3
v -3 14 -4
v -3 15 -1
v -3 15 -3
v -3 16 -1
v -3 16 -3
v -3 17 -0
v -3 17 -4
v -2 5 -0
v -2 5 -1
v -2 5 -4
v -2 5 -5
v -2 6 -0
v -2 6 -1
v -2 6 -4
v -2 6 -5
v -2 8 -5
v -2 8 -6
v -2 9 -5
v -2 9 -6
v -1 5 -5
v -1 5 -6
v -1 6 -5
v -1 6 -6
v -1 9 -5
v -1 9 -6
v -1 10 -4
v -1 10 -5
v -1 10 -6
v -1 11 -1
v -1 11 -3
v -1 11 -4
v -1 11 -5
v -1 14 -1
v -1 14 -3
v 1 0 -1
v 1 0 -4
v 1 1 -1
v 1 1 -4
v 1 10 -0
v 1 10 -1
v 1 11 -0
v 1 11 -1
v 2 0 -4
v 2 0 -5
v 2 1 -1
v 2 1 -2
v 2 1 -4
v 2 1 -5
v 2 5 -1
v 2 5 -2
v 2 14 -3
v 2 14 -4
v 2 15 -3
v 2 16 -3
v 2 16 -4
v 4 16 -1
v 4 16 -3
v 4 17 -2
v 4 17 -3
v 4 18 -1
v 4 18 -2
v 7 8 -1
v 7 8 -3
v 7 9 -1
v 7 9 -3
v 8 6 -1
v 8 6 -3
v 8 8 -1
v 8 8 -3
v -8 6 -1
v -8 6 -3
v -8 8 -1
v -8 8 -3
v -7 8 -1
v -7 8 -3
v -7 9 -1
v -7 9 -3
v -4 16 -1
v -4 16 -3
v -4 17 -2
v -4 17 -3
v -4 18 -1
v -4 18 -2
v -2 0 -4
v -2 0 -5
v -2 1 -1
v -2 1 -2
v -2 1 -4
v -2 1 -5
v -2 5 -1
v -2 5 -2
v -2 14 -3
v -2 14 -4
v -2 15 -3
v -2 16 -3
v -2 16 -4
v -1 0 -1
v -1 0 -4
v -1 1 -1
v -1 1 -4
v -1 10 -0
v -1 10 -1
v -1 11 -0
v -1 11 -1
v 1 5 -5
v 1 5 -6
v 1 6 -5
v 1 6 -6
v 1 9 -5
v 1 9 -6
v 1 10 -4
v 1 10 -5
v 1 10 -6
v 1 11 -1
v 1 11 -3
v 1 11 -4
v 1 11 -5
v 1 14 -1
v 1 14 -3
v 2 5 -0
v 2 5 -1
v 2 5 -4
v 2 5 -5
v 2 6 -0
v 2 6 -1
v 2 6 -4
v 2 6 -5
v 2 8 -5
v 2 8 -6
v 2 9 -5
v 2 9 -6
v 3 0 -4
v 3 0 -5
v 3 1 -1
v 3 1 -2
v 3 1 -4
v 3 1 -5
v 3 5 -1
v 3 5 -2
v 3 5 -3
v 3 5 -4
v 3 6 -0
v 3 6 -1
v 3 6 -3
v 3 6 -4
v 3 6 -5
v 3 6 -6
v 3 8 -0
v 3 8 -1
v 3 8 -5
v 3 8 -6
v 3 9 -1
v 3 9 -3
v 3 10 -3
v 3 10 -4
v 3 10 -5
v 3 11 -3
v 3 11 -4
v 3 14 -0
v 3 14 -1
v 3 14 -3
v 3 14 -4
v 3 15 -1
v 3 15 -3
v 3 16 -1
v 3 16 -3
v 3 17 -0
v 3 17 -4
v 4 0 -1
v 4 0 -4
v 4 1 -1
v 4 1 -4
v 4 5 -1
v 4 5 -3
v 4 6 -3
v 4 6 -5
v 4 8 -1
v 4 8 -5
v 4 10 -0
v 4 10 -1
v 4 11 -0
v 4 11 -1
v 5 15 -1
v 5 15 -3
v 5 17 -2
v 5 17 -3
v 5 18 -1
v 5 18 -2
v 7 10 -1
v 7 10 -3
v 7 11 -1
v 7 11 -3
v 8 9 -1
v 8 9 -3
v 8 10 -1
v 8 10 -3
v 9 6 -1
v 9 6 -3
v 9 9 -1
v 9 9 -3
v -4 10 -0
v -4 11 -0
v -3 6 -0
v -3 8 -0
v -3 14 -0
v -3 17 -0
v -2 5 -0
v -2 6 -0
v -1 10 -0
v -1 11 -0
v 1 10 -0
v 1 11 -0
v 2 5 -0
v 2 6 -0
v 3 6 -0
v 3 8 -0
v 3 14 -0
v 3 17 -0
v 4 10 -0
v 4 11 -0
v -9 6 -1
v -9 9 -1
v -8 6 -1
v -8 8 -1
v -8 9 -1
v -8 10 -1
v -7 8 -1
v -7 9 -1
v -7 10 -1
v -7 11 -1
v -5 15 -1
v -5 18 -1
v -4 0 -1
v -4 1 -1
v -4 5 -1
v -4 8 -1
v -4 10 -1
v -4 11 -1
v -4 16 -1
v -4 18 -1
v -3 1 -1
v -3 5 -1
v -3 6 -1
v -3 8 -1
v -3 9 -1
v -3 10 -1
v -3 15 -1
v -3 16 -1
v -2 1 -1
v -2 5 -1
v -2 6 -1
v -1 0 -1
v -1 1 -1
v -1 10 -1
v -1 11 -1
v -1 14 -1
v 1 0 -1
v 1 1 -1
v 1 10 -1
v 1 11 -1
v 1 14 -1
v 2 1 -1
v 2 5 -1
v 2 6 -1
v 3 1 -1
v 3 5 -1
v 3 6 -1
v 3 8 -1
v 3 9 -1
v 3 10 -1
v 3 15 -1
v 3 16 -1
v 4 0 -1
v 4 1 -1
v 4 5 -1
v 4 8 -1
v 4 10 -1
v 4 11 -1
v 4 16 -1
v 4 18 -1
v 5 15 -1
v 5 18 -1
v 7 8 -1
v 7 9 -1
v 7 10 -1
v 7 11 -1
v 8 6 -1
v 8 8 -1
v 8 9 -1
v 8 10 -1
v 9 6 -1
v 9 9 -1
v -5 17 -2
v -5 18 -2
v -4 17 -2
v -4 18 -2
v -3 1 -2
v -3 5 -2
v -2 1 -2
v -2 5 -2
v 2 1 -2
v 2 5 -2
v 3 1 -2
v 3 5 -2
v 4 17 -2
v 4 18 -2
v 5 17 -2
v 5 18 -2
v -9 6 -3
v -9 9 -3
v -8 6 -3
v -8 8 -3
v -8 9 -3
v -8 10 -3
v -7 8 -3
v -7 9 -3
v -7 10 -3
v -7 11 -3
v -5 15 -3
v -5 17 -3
v -4 5 -3
v -4 6 -3
v -4 10 -3
v -4 11 -3
v -4 16 -3
v -4 17 -3
v -3 5 -3
v -3 6 -3
v -3 9 -3
v -3 10 -3
v -3 11 -3
v -3 15 -3
v -3 16 -3
v -2 14 -3
v -2 15 -3
v -2 16 -3
v -1 11 -3
v -1 14 -3
v -1 15 -3
v -1 16 -3
v 1 11 -3
v 1 14 -3
v 1 15 -3
v 1 16 -3
v 2 14 -3
v 2 15 -3
v 2 16 -3
v 3 5 -3
v 3 6 -3
v 3 9 -3
v 3 10 -3
v 3 11 -3
v 3 15 -3
v 3 16 -3
v 4 5 -3
v 4 6 -3
v 4 10 -3
v 4 11 -3
v 4 16 -3
v 4 17 -3
v 5 15 -3
v 5 17 -3
v 7 8 -3
v 7 9 -3
v 7 10 -3
v 7 11 -3
v 8 6 -3
v 8 8 -3
v 8 9 -3
v 8 10 -3
v 9 6 -3
v 9 9 -3
v -4 0 -4
v -4 1 -4
v -3 0 -4
v -3 1 -4
v -3 5 -4
v -3 6 -4
v -3 10 -4
v -3 11 -4
v -3 14 -4
v -3 17 -4
v -2 0 -4
v -2 1 -4
v -2 5 -4
v -2 6 -4
v -2 14 -4
v -2 16 -4
v -1 0 -4
v -1 1 -4
v -1 10 -4
v -1 11 -4
v 1 0 -4
v 1 1 -4
v 1 10 -4
v 1 11 -4
v 2 0 -4
v 2 1 -4
v 2 5 -4
v 2 6 -4
v 2 14 -4
v 2 16 -4
v 3 0 -4
v 3 1 -4
v 3 5 -4
v 3 6 -4
v 3 10 -4
v 3 11 -4
v 3 14 -4
v 3 17 -4
v 4 0 -4
v 4 1 -4
v -4 6 -5
v -4 8 -5
v -3 0 -5
v -3 1 -5
v -3 6 -5
v -3 8 -5
v -3 10 -5
v -2 0 -5
v -2 1 -5
v -2 5 -5
v -2 6 -5
v -2 8 -5
v -2 9 -5
v -1 5 -5
v -1 6 -5
v -1 9 -5
v -1 10 -5
v -1 11 -5
v 1 5 -5
v 1 6 -5
v 1 9 -5
v 1 10 -5
v 1 11 -5
v 2 0 -5
v 2 1 -5
v 2 5 -5
v 2 6 -5
v 2 8 -5
v 2 9 -5
v 3 0 -5
v 3 1 -5
v 3 6 -5
v 3 8 -5
v 3 10 -5
v 4 6 -5
v 4 8 -5
v -3 6 -6
v -3 8 -6
v -2 8 -6
v -2 9 -6
v -1 5 -6
v -1 6 -6
v -1 9 -6
v -1 10 -6
v 1 5 -6
v 1 6 -6
v 1 9 -6
v 1 10 -6
v 2 8 -6
v 2 9 -6
v 3 6 -6
v 3 8 -6
v -4 0 -1
v -1 0 -1
v 1 0 -1
v 4 0 -1
v -4 0 -4
v -3 0 -4
v -2 0 -4
v -1 0 -4
v 1 0 -4
v 2 0 -4
v 3 0 -4
v 4 0 -4
v -3 0 -5
v -2 0 -5
v 2 0 -5
v 3 0 -5
v -2 5 -0
v 2 5 -0
v -4 5 -1
v -3 5 -1
v -2 5 -1
v 2 5 -1
v 3 5 -1
v 4 5 -1
v -3 5 -2
v -2 5 -2
v 2 5 -2
v 3 5 -2
v -4 5 -3
v -3 5 -3
v 3 5 -3
v 4 5 -3
v -3 5 -4
v -2 5 -4
v 2 5 -4
v 3 5 -4
v -2 5 -5
v -1 5 -5
v 1 5 -5
v 2 5 -5
v -1 5 -6
v 1 5 -6
v -3 6 -0
v -2 6 -0
v 2 6 -0
v 3 6 -0
v -9 6 -1
v -8 6 -1
v -3 6 -1
v -2 6 -1
v 2 6 -1
v 3 6 -1
v 8 6 -1
v 9 6 -1
v -9 6 -3
v -8 6 -3
v -4 6 -3
v -3 6 -3
v 3 6 -3
v 4 6 -3
v 8 6 -3
v 9 6 -3
v -3 6 -4
v -2 6 -4
v 2 6 -4
v 3 6 -4
v -4 6 -5
v -3 6 -5
v -2 6 -5
v -1 6 -5
v 1 6 -5
v 2 6 -5
v 3 6 -5
v 4 6 -5
v -3 6 -6
v -1 6 -6
v 1 6 -6
v 3 6 -6
v -8 8 -1
v -7 8 -1
v 7 8 -1
v 8 8 -1
v -8 8 -3
v -7 8 -3
v 7 8 -3
v 8 8 -3
v -7 9 -1
v -3 9 -1
v 3 9 -1
v 7 9 -1
v -7 9 -3
v -3 9 -3
v 3 9 -3
v 7 9 -3
v -4 10 -0
v -1 10 -0
v 1 10 -0
v 4 10 -0
v -4 10 -1
v -3 10 -1
v -1 10 -1
v 1 10 -1
v 3 10 -1
v 4 10 -1
v -3 14 -0
v 3 14 -0
v -3 14 -1
v -1 14 -1
v 1 14 -1
v 3 14 -1
v -3 14 -3
v -2 14 -3
v -1 14 -3
v 1 14 -3
v 2 14 -3
v 3 14 -3
v -3 14 -4
v -2 14 -4
v 2 14 -4
v 3 14 -4
v -5 15 -1
v -3 15 -1
v 3 15 -1
v 5 15 -1
v -5 15 -3
v -3 15 -3
v 3 15 -3
v 5 15 -3
v -2 16 -3
v -1 16 -3
v 1 16 -3
v 2 16 -3
v -2 16 -4
v 2 16 -4
v -4 1 -1
v -3 1 -1
v -2 1 -1
v -1 1 -1
v 1 1 -1
v 2 1 -1
v 3 1 -1
v 4 1 -1
v -3 1 -2
v -2 1 -2
v 2 1 -2
v 3 1 -2
v -4 1 -4
v -3 1 -4
v -2 1 -4
v -1 1 -4
v 1 1 -4
v 2 1 -4
v 3 1 -4
v 4 1 -4
v -3 1 -5
v -2 1 -5
v 2 1 -5
v 3 1 -5
v -3 8 -0
v 3 8 -0
v -4 8 -1
v -3 8 -1
v 3 8 -1
v 4 8 -1
v -4 8 -5
v -3 8 -5
v -2 8 -5
v 2 8 -5
v 3 8 -5
v 4 8 -5
v -3 8 -6
v -2 8 -6
v 2 8 -6
v 3 8 -6
v -9 9 -1
v -8 9 -1
v 8 9 -1
v 9 9 -1
v -9 9 -3
v -8 9 -3
v 8 9 -3
v 9 9 -3
v -2 9 -5
v -1 9 -5
v 1 9 -5
v 2 9 -5
v -2 9 -6
v -1 9 -6
v 1 9 -6
v 2 9 -6
v -8 10 -1
v -7 10 -1
v 7 10 -1
v 8 10 -1
v -8 10 -3
v -7 10 -3
v 7 10 -3
v 8 10 -3
v -3 10 -4
v -1 10 -4
v 1 10 -4
v 3 10 -4
v -3 10 -5
v -1 10 -5
v 1 10 -5
v 3 10 -5
v -1 10 -6
v 1 10 -6
v -4 11 -0
v -1 11 -0
v 1 11 -0
v 4 11 -0
v -7 11 -1
v -4 11 -1
v -1 11 -1
v 1 11 -1
v 4 11 -1
v 7 11 -1
v -7 11 -3
v -4 11 -3
v -3 11 -3
v -1 11 -3
v 1 11 -3
v 3 11 -3
v 4 11 -3
v 7 11 -3
v -3 11 -4
v -1 11 -4
v 1 11 -4
v 3 11 -4
v -1 11 -5
v 1 11 -5
v -4 16 -1
v -3 16 -1
v 3 16 -1
v 4 16 -1
v -4 16 -3
v -3 16 -3
v 3 16 -3
v 4 16 -3
v -3 17 -0
v 3 17 -0
v -5 17 -2
v -4 17 -2
v 4 17 -2
v 5 17 -2
v -5 17 -3
v -4 17 -3
v 4 17 -3
v 5 17 -3
v -3 17 -4
v 3 17 -4
v -5 18 -1
v -4 18 -1
v 4 18 -1
v 5 18 -1
v -5 18 -2
v -4 18 -2
v 4 18 -2
v 5 18 -2

# faces
f 3/2/1 2/2/1 1/2/1
f 4/2/1 2/2/1 3/2/1
f 7/2/1 6/2/1 5/2/1
f 8/2/1 6/2/1 7/2/1
f 11/2/1 10/2/1 9/2/1
f 12/2/1 10/2/1 11/2/1
f 15/4/1 14/4/1 13/4/1
f 16/4/1 14/4/1 15/4/1
f 17/4/1 15/4/1 13/4/1
f 18/4/1 15/4/1 17/4/1
f 21/6/1 20/6/1 19/6/1
f 22/6/1 20/6/1 21/6/1
f 25/3/1 24/3/1 23/3/1
f 27/3/1 25/3/1 23/3/1
f 27/3/1 26/3/1 25/3/1
f 28/3/1 26/3/1 27/3/1
f 31/3/1 30/3/1 29/3/1
f 32/3/1 30/3/1 31/3/1
f 37/6/1 34/6/1 33/6/1
f 38/6/1 34/6/1 37/6/1
f 39/2/1 36/2/1 35/2/1
f 40/2/1 36/2/1 39/2/1
f 45/3/1 42/3/1 41/3/1
f 46/3/1 42/3/1 45/3/1
f 49/3/1 44/3/1 43/3/1
f 50/3/1 44/3/1 49/3/1
f 51/3/1 48/3/1 47/3/1
f 52/3/1 48/3/1 51/3/1
f 53/3/1 51/3/1 50/3/1
f 54/3/1 51/3/1 53/3/1
f 55/3/1 51/3/1 54/3/1
f 56/3/1 51/3/1 55/3/1
f 57/3/1 51/3/1 56/3/1
f 58/3/1 56/3/1 55/3/1
f 59/3/1 56/3/1 58/3/1
f 64/5/1 61/5/1 60/5/1
f 64/4/1 62/4/1 61/4/1
f 65/5/1 63/5/1 62/5/1
f 65/4/1 62/4/1 64/4/1
f 66/5/1 64/5/1 60/5/1
f 67/5/1 63/5/1 65/5/1
f 68/5/1 66/5/1 60/5/1
f 68/5/1 67/5/1 66/5/1
f 69/5/1 63/5/1 67/5/1
f 69/5/1 67/5/1 68/5/1
f 74/3/1 71/3/1 70/3/1
f 75/3/1 71/3/1 74/3/1
f 76/3/1 73/3/1 72/3/1
f 77/3/1 73/3/1 76/3/1
f 80/3/1 79/3/1 78/3/1
f 81/3/1 79/3/1 80/3/1
f 84/3/1 83/3/1 82/3/1
f 85/3/1 83/3/1 84/3/1
f 89/3/1 87/3/1 86/3/1
f 90/3/1 87/3/1 89/3/1
f 93/3/1 89/3/1 88/3/1
f 94/3/1 89/3/1 93/3/1
f 95/2/1 92/2/1 91/2/1
f 96/2/1 92/2/1 95/2/1
f 99/6/1 98/6/1 97/6/1
f 100/6/1 98/6/1 99/6/1
f 103/3/1 102/3/1 101/3/1
f 104/3/1 102/3/1 103/3/1
f 109/6/1 106/6/1 105/6/1
f 110/6/1 106/6/1 109/6/1
f 111/2/1 108/2/1 107/2/1
f 112/2/1 108/2/1 111/2/1
f 115/5/1 114/5/1 113/5/1
f 116/5/1 114/5/1 115/5/1
f 117/5/1 114/5/1 116/5/1
f 120/4/1 119/4/1 118/4/1
f 121/4/1 119/4/1 120/4/1
f 122/4/1 120/4/1 118/4/1
f 123/4/1 120/4/1 122/4/1
f 126/2/1 125/2/1 124/2/1
f 127/2/1 125/2/1 126/2/1
f 130/2/1 129/2/1 128/2/1
f 131/2/1 129/2/1 130/2/1
f 132/2/2 133/2/2 134/2/2
f 134/2/2 133/2/2 135/2/2
f 136/2/2 137/2/2 138/2/2
f 138/2/2 137/2/2 139/2/2
f 140/4/2 141/4/2 142/4/2
f 142/4/2 141/4/2 143/4/2
f 140/4/2 142/4/2 144/4/2
f 144/4/2 142/4/2 145/4/2
f 146/6/2 147/6/2 150/6/2
f 150/6/2 147/6/2 151/6/2
f 148/2/2 149/2/2 152/2/2
f 152/2/2 149/2/2 153/2/2
f 154/5/2 155/5/2 156/5/2
f 156/5/2 155/5/2 157/5/2
f 157/5/2 155/5/2 158/5/2
f 159/6/2 160/6/2 161/6/2
f 161/6/2 160/6/2 162/6/2
f 163/3/2 164/3/2 165/3/2
f 165/3/2 164/3/2 166/3/2
f 167/3/2 168/3/2 169/3/2
f 169/3/2 168/3/2 170/3/2
f 171/3/2 172/3/2 174/3/2
f 174/3/2 172/3/2 175/3/2
f 173/3/2 174/3/2 178/3/2
f 178/3/2 174/3/2 179/3/2
f 176/2/2 177/2/2 180/2/2
f 180/2/2 177/2/2 181/2/2
f 182/3/2 183/3/2 186/3/2
f 186/3/2 183/3/2 187/3/2
f 184/3/2 185/3/2 188/3/2
f 188/3/2 185/3/2 189/3/2
f 190/3/2 191/3/2 192/3/2
f 192/3/2 191/3/2 193/3/2
f 194/6/2 195/6/2 198/6/2
f 198/6/2 195/6/2 199/6/2
f 196/2/2 197/2/2 200/2/2
f 200/2/2 197/2/2 201/2/2
f 202/3/2 203/3/2 206/3/2
f 206/3/2 203/3/2 207/3/2
f 204/3/2 205/3/2 210/3/2
f 210/3/2 205/3/2 211/3/2
f 208/3/2 209/3/2 212/3/2
f 212/3/2 209/3/2 213/3/2
f 211/3/2 212/3/2 214/3/2
f 214/3/2 212/3/2 215/3/2
f 215/3/2 212/3/2 216/3/2
f 216/3/2 212/3/2 217/3/2
f 217/3/2 212/3/2 218/3/2
f 216/3/2 217/3/2 219/3/2
f 219/3/2 217/3/2 220/3/2
f 221/5/2 222/5/2 225/5/2
f 222/4/2 223/4/2 225/4/2
f 223/5/2 224/5/2 226/5/2
f 225/4/2 223/4/2 226/4/2
f 221/5/2 225/5/2 227/5/2
f 226/5/2 224/5/2 228/5/2
f 221/5/2 227/5/2 229/5/2
f 227/5/2 228/5/2 229/5/2
f 228/5/2 224/5/2 230/5/2
f 229/5/2 228/5/2 230/5/2
f 231/6/2 232/6/2 233/6/2
f 233/6/2 232/6/2 234/6/2
f 235/3/2 236/3/2 237/3/2
f 235/3/2 237/3/2 239/3/2
f 237/3/2 238/3/2 239/3/2
f 239/3/2 238/3/2 240/3/2
f 241/3/2 242/3/2 243/3/2
f 243/3/2 242/3/2 244/3/2
f 245/4/2 246/4/2 247/4/2
f 247/4/2 246/4/2 248/4/2
f 245/4/2 247/4/2 249/4/2
f 249/4/2 247/4/2 250/4/2
f 251/2/2 252/2/2 253/2/2
f 253/2/2 252/2/2 254/2/2
f 255/2/2 256/2/2 257/2/2
f 257/2/2 256/2/2 258/2/2
f 259/2/2 260/2/2 261/2/2
f 261/2/2 260/2/2 262/2/2
f 270/3/3 266/3/3 265/3/3
f 271/3/3 264/3/3 263/3/3
f 272/3/3 264/3/3 271/3/3
f 275/3/3 270/3/3 269/3/3
f 276/3/3 266/3/3 270/3/3
f 276/3/3 270/3/3 275/3/3
f 277/3/3 266/3/3 276/3/3
f 278/3/3 266/3/3 277/3/3
f 279/5/3 268/5/3 267/5/3
f 280/5/3 268/5/3 279/5/3
f 281/3/3 274/3/3 273/3/3
f 282/3/3 274/3/3 281/3/3
f 285/2/3 284/2/3 283/2/3
f 286/2/3 284/2/3 285/2/3
f 287/2/3 284/2/3 286/2/3
f 289/2/3 288/2/3 287/2/3
f 289/2/3 287/2/3 286/2/3
f 290/2/3 288/2/3 289/2/3
f 291/2/3 288/2/3 290/2/3
f 299/2/3 292/2/3 291/2/3
f 299/2/3 291/2/3 290/2/3
f 300/2/3 292/2/3 299/2/3
f 301/4/3 294/4/3 293/4/3
f 302/4/3 294/4/3 301/4/3
f 303/6/3 296/6/3 295/6/3
f 304/3/3 298/3/3 297/3/3
f 305/3/3 298/3/3 304/3/3
f 306/3/3 298/3/3 305/3/3
f 307/2/3 299/2/3 290/2/3
f 308/2/3 299/2/3 307/2/3
f 309/4/3 301/4/3 293/4/3
f 310/4/3 301/4/3 309/4/3
f 311/6/3 303/6/3 295/6/3
f 311/2/3 304/2/3 303/2/3
f 312/3/3 305/3/3 304/3/3
f 312/2/3 304/2/3 311/2/3
f 313/3/3 305/3/3 312/3/3
f 314/6/3 311/6/3 295/6/3
f 315/6/3 311/6/3 314/6/3
f 316/3/3 308/3/3 307/3/3
f 316/3/3 307/3/3 306/3/3
f 321/3/3 316/3/3 306/3/3
f 321/3/3 317/3/3 316/3/3
f 322/2/3 318/2/3 317/2/3
f 322/3/3 317/3/3 321/3/3
f 323/2/3 318/2/3 322/2/3
f 324/6/3 320/6/3 319/6/3
f 327/6/3 324/6/3 319/6/3
f 327/2/3 325/2/3 324/2/3
f 328/3/3 326/3/3 325/3/3
f 328/2/3 325/2/3 327/2/3
f 329/3/3 326/3/3 328/3/3
f 330/3/3 321/3/3 306/3/3
f 331/3/3 321/3/3 330/3/3
f 332/3/3 321/3/3 331/3/3
f 335/6/3 327/6/3 319/6/3
f 336/6/3 327/6/3 335/6/3
f 337/3/3 329/3/3 328/3/3
f 337/3/3 330/3/3 329/3/3
f 338/3/3 330/3/3 337/3/3
f 339/2/3 332/2/3 331/2/3
f 341/4/3 334/4/3 333/4/3
f 343/4/3 341/4/3 333/4/3
f 343/4/3 342/4/3 341/4/3
f 344/4/3 342/4/3 343/4/3
f 346/2/3 339/2/3 331/2/3
f 346/2/3 340/2/3 339/2/3
f 347/2/3 340/2/3 346/2/3
f 348/2/3 340/2/3 347/2/3
f 350/2/3 346/2/3 345/2/3
f 350/2/3 347/2/3 346/2/3
f 351/2/3 347/2/3 350/2/3
f 352/2/3 347/2/3 351/2/3
f 353/2/3 350/2/3 349/2/3
f 353/2/3 351/2/3 350/2/3
f 354/2/3 351/2/3 353/2/3
f 355/4/4 356/4/4 357/4/4
f 357/4/4 356/4/4 358/4/4
f 359/2/4 360/2/4 361/2/4
f 361/2/4 360/2/4 362/2/4
f 363/2/4 364/2/4 365/2/4
f 365/2/4 364/2/4 366/2/4
f 367/4/4 368/4/4 369/4/4
f 369/4/4 368/4/4 370/4/4
f 371/2/4 372/2/4 373/2/4
f 373/2/4 372/2/4 374/2/4
f 374/2/4 372/2/4 375/2/4
f 375/2/4 376/2/4 377/2/4
f 374/2/4 375/2/4 377/2/4
f 377/2/4 376/2/4 378/2/4
f 378/2/4 376/2/4 379/2/4
f 379/2/4 380/2/4 385/2/4
f 378/2/4 379/2/4 385/2/4
f 385/2/4 380/2/4 386/2/4
f 381/4/4 382/4/4 387/4/4
f 387/4/4 382/4/4 388/4/4
f 383/3/4 384/3/4 389/3/4
f 389/3/4 384/3/4 390/3/4
f 378/2/4 385/2/4 391/2/4
f 385/3/4 386/3/4 392/3/4
f 391/2/4 385/2/4 392/2/4
f 392/3/4 386/3/4 393/3/4
f 381/4/4 387/4/4 394/4/4
f 394/4/4 387/4/4 395/4/4
f 396/4/4 397/4/4 400/4/4
f 397/1/4 398/1/4 401/1/4
f 400/4/4 397/4/4 401/4/4
f 401/1/4 398/1/4 402/1/4
f 399/2/4 400/2/4 403/2/4
f 400/4/4 401/4/4 404/4/4
f 403/2/4 400/2/4 404/2/4
f 401/4/4 402/4/4 404/4/4
f 404/4/4 402/4/4 405/4/4
f 405/4/4 402/4/4 406/4/4
f 404/4/4 405/4/4 407/4/4
f 405/1/4 406/1/4 408/1/4
f 407/4/4 405/4/4 408/4/4
f 408/1/4 406/1/4 409/1/4
f 410/3/4 411/3/4 417/3/4
f 417/3/4 411/3/4 418/3/4
f 412/2/4 413/2/4 419/2/4
f 413/3/4 414/3/4 419/3/4
f 419/3/4 414/3/4 420/3/4
f 415/4/4 416/4/4 421/4/4
f 415/4/4 421/4/4 423/4/4
f 421/4/4 422/4/4 423/4/4
f 423/4/4 422/4/4 424/4/4
f 419/2/4 420/2/4 426/2/4
f 412/2/4 419/2/4 426/2/4
f 426/2/4 420/2/4 427/2/4
f 427/2/4 420/2/4 428/2/4
f 425/2/4 426/2/4 430/2/4
f 426/2/4 427/2/4 430/2/4
f 430/2/4 427/2/4 431/2/4
f 431/2/4 427/2/4 432/2/4
f 429/2/4 430/2/4 433/2/4
f 430/2/4 431/2/4 433/2/4
f 433/2/4 431/2/4 434/2/4
f 435/6/4 436/6/4 437/6/4
f 437/6/4 436/6/4 438/6/4
f 439/3/4 440/3/4 447/3/4
f 447/3/4 440/3/4 448/3/4
f 443/5/4 444/5/4 449/5/4
f 449/5/4 444/5/4 450/5/4
f 445/6/4 446/6/4 451/6/4
f 451/6/4 446/6/4 452/6/4
f 441/3/4 442/3/4 453/3/4
f 453/3/4 442/3/4 454/3/4
f 455/6/4 456/6/4 459/6/4
f 459/6/4 456/6/4 460/6/4
f 450/5/4 444/5/4 464/5/4
f 461/3/4 462/3/4 467/3/4
f 467/3/4 462/3/4 468/3/4
f 457/3/4 458/3/4 469/3/4
f 469/3/4 458/3/4 470/3/4
f 463/5/4 464/5/4 471/5/4
f 464/5/4 444/5/4 472/5/4
f 471/5/4 464/5/4 472/5/4
f 465/6/4 466/6/4 473/6/4
f 473/6/4 466/6/4 474/6/4
f 475/3/4 476/3/4 479/3/4
f 479/3/4 476/3/4 480/3/4
f 477/6/4 478/6/4 482/6/4
f 482/6/4 478/6/4 483/6/4
f 480/3/4 481/3/4 486/3/4
f 486/3/4 481/3/4 487/3/4
f 484/3/4 485/3/4 488/3/4
f 488/3/4 485/3/4 489/3/4
f 487/3/4 481/3/4 490/3/4
f 490/3/4 481/3/4 491/3/4
f 491/3/4 492/3/4 496/3/4
f 496/3/4 492/3/4 497/3/4
f 493/3/4 494/3/4 500/3/4
f 500/3/4 494/3/4 501/3/4
f 495/3/4 496/3/4 503/3/4
f 498/6/4 499/6/4 504/6/4
f 504/6/4 499/6/4 505/6/4
f 502/3/4 503/3/4 507/3/4
f 503/3/4 496/3/4 508/3/4
f 507/3/4 503/3/4 508/3/4
f 506/3/4 507/3/4 509/3/4
f 509/3/4 507/3/4 510/3/4
f 511/3/4 512/3/4 513/3/4
f 511/3/4 513/3/4 516/3/4
f 513/3/4 514/3/4 516/3/4
f 516/3/4 514/3/4 517/3/4
f 515/3/4 516/3/4 519/3/4
f 517/3/4 518/3/4 519/3/4
f 516/3/4 517/3/4 519/3/4
f 519/3/4 518/3/4 520/3/4
f 520/3/4 518/3/4 521/3/4
f 521/3/4 518/3/4 522/3/4
f 520/3/4 521/3/4 523/3/4
f 523/3/4 521/3/4 524/3/4
f 520/3/4 523/3/4 525/3/4
f 525/3/4 523/3/4 526/3/4
f 531/6/5 528/6/5 527/6/5
f 532/6/5 528/6/5 531/6/5
f 533/6/5 528/6/5 532/6/5
f 534/6/5 528/6/5 533/6/5
f 535/6/5 530/6/5 529/6/5
f 536/6/5 530/6/5 535/6/5
f 537/6/5 530/6/5 536/6/5
f 538/6/5 530/6/5 537/6/5
f 539/6/5 533/6/5 532/6/5
f 540/6/5 533/6/5 539/6/5
f 541/6/5 537/6/5 536/6/5
f 542/6/5 537/6/5 541/6/5
f 547/3/5 544/3/5 543/3/5
f 548/3/5 544/3/5 547/3/5
f 551/3/5 546/3/5 545/3/5
f 552/3/5 548/3/5 547/3/5
f 553/3/5 548/3/5 552/3/5
f 554/3/5 550/3/5 549/3/5
f 555/3/5 553/3/5 552/3/5
f 555/3/5 554/3/5 553/3/5
f 555/3/5 551/3/5 545/3/5
f 555/3/5 552/3/5 551/3/5
f 556/3/5 554/3/5 555/3/5
f 557/3/5 550/3/5 554/3/5
f 557/3/5 554/3/5 556/3/5
f 558/3/5 550/3/5 557/3/5
f 559/3/5 557/3/5 556/3/5
f 560/3/5 557/3/5 559/3/5
f 561/3/5 557/3/5 560/3/5
f 562/3/5 557/3/5 561/3/5
f 563/3/5 561/3/5 560/3/5
f 564/3/5 561/3/5 563/3/5
f 565/3/5 561/3/5 564/3/5
f 566/3/5 561/3/5 565/3/5
f 567/3/5 565/3/5 564/3/5
f 568/3/5 565/3/5 567/3/5
f 575/3/5 570/3/5 569/3/5
f 576/3/5 570/3/5 575/3/5
f 577/3/5 572/3/5 571/3/5
f 578/3/5 572/3/5 577/3/5
f 581/2/5 574/2/5 573/2/5
f 582/2/5 574/2/5 581/2/5
f 587/2/5 580/2/5 579/2/5
f 588/2/5 580/2/5 587/2/5
f 589/3/5 584/3/5 583/3/5
f 592/3/5 586/3/5 585/3/5
f 593/3/5 590/3/5 589/3/5
f 593/3/5 589/3/5 583/3/5
f 594/3/5 590/3/5 593/3/5
f 595/3/5 590/3/5 594/3/5
f 598/3/5 592/3/5 591/3/5
f 599/3/5 586/3/5 592/3/5
f 599/3/5 592/3/5 598/3/5
f 600/3/5 586/3/5 599/3/5
f 601/3/5 596/3/5 595/3/5
f 601/3/5 595/3/5 594/3/5
f 602/3/5 596/3/5 601/3/5
f 603/3/5 598/3/5 597/3/5
f 603/3/5 599/3/5 598/3/5
f 604/3/5 599/3/5 603/3/5
f 609/2/5 606/2/5 605/2/5
f 610/2/5 606/2/5 609/2/5
f 611/2/5 608/2/5 607/2/5
f 612/2/5 608/2/5 611/2/5
f 617/2/5 614/2/5 613/2/5
f 618/2/5 614/2/5 617/2/5
f 619/2/5 616/2/5 615/2/5
f 620/2/5 616/2/5 619/2/5
f 625/3/5 622/3/5 621/3/5
f 626/3/5 622/3/5 625/3/5
f 627/3/5 622/3/5 626/3/5
f 628/3/5 624/3/5 623/3/5
f 629/3/5 624/3/5 628/3/5
f 630/3/5 624/3/5 629/3/5
f 633/5/5 632/5/5 631/5/5
f 634/5/5 632/5/5 633/5/5
f 635/5/5 632/5/5 634/5/5
f 636/5/5 632/5/5 635/5/5
f 637/4/5 634/4/5 633/4/5
f 638/4/5 634/4/5 637/4/5
f 639/4/5 634/4/5 638/4/5
f 640/4/5 636/4/5 635/4/5
f 641/4/5 636/4/5 640/4/5
f 642/4/5 636/4/5 641/4/5
f 643/5/5 638/5/5 637/5/5
f 644/5/5 638/5/5 643/5/5
f 645/5/5 642/5/5 641/5/5
f 646/5/5 642/5/5 645/5/5
f 651/4/5 648/4/5 647/4/5
f 652/4/5 648/4/5 651/4/5
f 653/4/5 650/4/5 649/4/5
f 654/4/5 650/4/5 653/4/5
f 659/5/5 656/5/5 655/5/5
f 659/5/5 658/5/5 657/5/5
f 659/5/5 657/5/5 656/5/5
f 660/5/5 658/5/5 659/5/5
f 661/6/6 662/6/6 669/6/6
f 663/6/6 664/6/6 670/6/6
f 665/6/6 666/6/6 671/6/6
f 667/6/6 668/6/6 672/6/6
f 661/6/6 669/6/6 673/6/6
f 669/6/6 670/6/6 673/6/6
f 673/6/6 670/6/6 674/6/6
f 670/6/6 664/6/6 675/6/6
f 674/6/6 670/6/6 675/6/6
f 675/6/6 664/6/6 676/6/6
f 665/6/6 671/6/6 677/6/6
f 671/6/6 672/6/6 677/6/6
f 677/6/6 672/6/6 678/6/6
f 672/6/6 668/6/6 679/6/6
f 678/6/6 672/6/6 679/6/6
f 679/6/6 668/6/6 680/6/6
f 674/6/6 675/6/6 681/6/6
f 681/6/6 675/6/6 682/6/6
f 678/6/6 679/6/6 683/6/6
f 683/6/6 679/6/6 684/6/6
f 685/3/6 686/3/6 688/3/6
f 688/3/6 686/3/6 689/3/6
f 687/3/6 688/3/6 691/3/6
f 691/3/6 688/3/6 692/3/6
f 689/3/6 690/3/6 695/3/6
f 695/3/6 690/3/6 696/3/6
f 692/3/6 693/3/6 697/3/6
f 697/3/6 693/3/6 698/3/6
f 694/3/6 695/3/6 699/3/6
f 699/3/6 695/3/6 700/3/6
f 701/2/6 702/2/6 705/2/6
f 705/2/6 702/2/6 706/2/6
f 703/2/6 704/2/6 707/2/6
f 707/2/6 704/2/6 708/2/6
f 709/3/6 710/3/6 713/3/6
f 713/3/6 710/3/6 714/3/6
f 711/3/6 712/3/6 715/3/6
f 715/3/6 712/3/6 716/3/6
f 717/2/6 718/2/6 721/2/6
f 721/2/6 718/2/6 722/2/6
f 719/2/6 720/2/6 723/2/6
f 723/2/6 720/2/6 724/2/6
f 725/3/6 726/3/6 729/3/6
f 729/3/6 726/3/6 730/3/6
f 727/3/6 728/3/6 731/3/6
f 731/3/6 728/3/6 732/3/6
f 730/3/6 731/3/6 733/3/6
f 733/3/6 731/3/6 734/3/6
f 735/3/6 736/3/6 740/3/6
f 740/3/6 736/3/6 741/3/6
f 737/3/6 738/3/6 742/3/6
f 742/3/6 738/3/6 743/3/6
f 739/2/6 740/2/6 745/2/6
f 740/3/6 741/3/6 746/3/6
f 745/2/6 740/2/6 746/2/6
f 746/3/6 741/3/6 747/3/6
f 747/3/6 741/3/6 748/3/6
f 742/3/6 743/3/6 749/3/6
f 749/3/6 743/3/6 750/3/6
f 743/2/6 744/2/6 751/2/6
f 750/3/6 743/3/6 751/3/6
f 751/2/6 744/2/6 752/2/6
f 749/3/6 750/3/6 753/3/6
f 747/3/6 748/3/6 753/3/6
f 748/3/6 749/3/6 753/3/6
f 753/3/6 750/3/6 754/3/6
f 754/3/6 750/3/6 755/3/6
f 755/3/6 750/3/6 756/3/6
f 754/3/6 755/3/6 757/3/6
f 757/3/6 755/3/6 758/3/6
f 759/4/6 760/4/6 763/4/6
f 763/4/6 760/4/6 764/4/6
f 761/4/6 762/4/6 765/4/6
f 765/4/6 762/4/6 766/4/6
f 769/4/6 770/4/6 773/4/6
f 773/4/6 770/4/6 774/4/6
f 771/4/6 772/4/6 775/4/6
f 775/4/6 772/4/6 776/4/6
f 767/5/6 768/5/6 777/5/6
f 777/5/6 768/5/6 778/5/6
f 779/4/6 780/4/6 783/4/6
f 783/4/6 780/4/6 784/4/6
f 781/4/6 782/4/6 785/4/6
f 785/4/6 782/4/6 786/4/6
