# MagicaVoxel @ Ephtracy

# group
g npc

# material
mtllib npc.mtl
usemtl palette

# normals
vn -1 0 0
vn 1 0 0
vn 0 0 1
vn 0 0 -1
vn 0 -1 0
vn 0 1 0

# texcoords
vt 0.00195313 0.5
vt 0.0332031 0.5
vt 0.0605469 0.5
vt 0.138672 0.5
vt 0.166016 0.5
vt 0.634766 0.5
vt 0.638672 0.5
vt 0.908203 0.5
vt 0.931641 0.5
vt 0.935547 0.5
vt 0.958984 0.5
vt 0.978516 0.5
vt 0.982422 0.5
vt 0.986328 0.5
vt 0.994141 0.5

# verts
v -5 4 6
v -5 4 4
v -5 9 6
v -5 9 4
v -5 10 6
v -5 10 4
v -5 11 6
v -5 11 4
v -5 14 9
v -5 14 2
v -5 16 2
v -5 16 -0
v -5 18 10
v -5 18 9
v -5 21 10
v -5 21 9
v -5 21 1
v -5 21 -0
v -5 22 9
v -5 22 1
v -4 11 7
v -4 11 6
v -4 11 4
v -4 11 3
v -4 12 6
v -4 12 4
v -4 13 7
v -4 13 3
v -4 14 2
v -4 14 1
v -4 16 2
v -4 16 1
v -4 21 10
v -4 21 9
v -4 21 1
v -4 21 -0
v -4 22 10
v -4 22 9
v -4 22 1
v -4 22 -0
v -4 23 9
v -4 23 7
v -4 23 2
v -4 23 1
v -4 24 7
v -4 24 2
v -3 0 6
v -3 0 4
v -3 2 6
v -3 2 4
v -3 4 8
v -3 4 6
v -3 4 4
v -3 4 2
v -3 6 4
v -3 6 3
v -3 8 4
v -3 8 3
v -3 9 6
v -3 9 4
v -3 10 6
v -3 10 4
v -3 11 7
v -3 11 6
v -3 11 4
v -3 11 3
v -3 12 8
v -3 12 7
v -3 12 3
v -3 12 2
v -3 23 8
v -3 23 7
v -3 24 8
v -3 24 7
v -2 14 8
v -2 14 6
v -2 15 8
v -2 15 6
v -2 23 9
v -2 23 8
v -2 24 9
v -2 24 8
v -1 12 7
v -1 12 3
v -1 14 7
v -1 14 6
v -1 14 3
v -1 17 10
v -1 17 8
v -1 18 10
v -1 18 8
v 0 14 9
v 0 14 8
v 0 15 10
v 0 15 9
v 0 17 10
v 0 17 8
v 3 0 6
v 3 0 4
v 3 2 6
v 3 2 4
v 3 4 6
v 3 4 4
v 4 12 8
v 4 12 2
v 4 13 8
v 4 13 2
v 4 19 9
v 4 19 8
v 4 20 9
v 4 20 8
v 5 14 9
v 5 14 6
v 5 15 8
v 5 15 6
v 5 16 8
v 5 17 8
v 5 18 9
v 5 18 8
v -3 14 9
v -3 14 6
v -3 15 8
v -3 15 6
v -3 16 8
v -3 18 9
v -3 18 8
v -2 12 7
v -2 12 3
v -2 13 7
v -2 13 3
v -1 0 6
v -1 0 4
v -1 2 6
v -1 2 4
v -1 4 6
v -1 4 4
v 2 14 9
v 2 14 8
v 2 15 10
v 2 15 9
v 2 17 10
v 2 17 8
v 3 12 7
v 3 12 3
v 3 14 7
v 3 14 6
v 3 14 3
v 3 17 10
v 3 17 8
v 3 18 10
v 3 18 8
v 3 19 9
v 3 19 8
v 3 20 9
v 3 20 8
v 4 14 8
v 4 14 6
v 4 15 8
v 4 15 6
v 4 23 9
v 4 23 8
v 4 24 9
v 4 24 8
v 5 0 6
v 5 0 4
v 5 2 6
v 5 2 4
v 5 4 8
v 5 4 6
v 5 4 4
v 5 4 2
v 5 6 4
v 5 6 3
v 5 8 4
v 5 8 3
v 5 9 6
v 5 9 4
v 5 10 6
v 5 10 4
v 5 11 7
v 5 11 6
v 5 11 4
v 5 11 3
v 5 13 8
v 5 13 7
v 5 13 3
v 5 13 2
v 5 23 8
v 5 23 7
v 5 24 8
v 5 24 7
v 6 11 7
v 6 11 6
v 6 11 4
v 6 11 3
v 6 12 6
v 6 12 4
v 6 13 7
v 6 13 3
v 6 14 2
v 6 14 1
v 6 16 2
v 6 16 1
v 6 21 10
v 6 21 9
v 6 21 1
v 6 21 -0
v 6 22 10
v 6 22 9
v 6 22 1
v 6 22 -0
v 6 23 9
v 6 23 7
v 6 23 2
v 6 23 1
v 6 24 7
v 6 24 2
v 7 4 6
v 7 4 4
v 7 9 6
v 7 9 4
v 7 10 6
v 7 10 4
v 7 11 6
v 7 11 4
v 7 14 9
v 7 14 2
v 7 16 2
v 7 16 -0
v 7 18 10
v 7 18 9
v 7 21 10
v 7 21 9
v 7 21 1
v 7 21 -0
v 7 22 9
v 7 22 1
v -5 18 10
v -5 21 10
v -4 21 10
v -4 22 10
v -1 17 10
v -1 18 10
v 0 15 10
v 0 17 10
v 2 15 10
v 2 17 10
v 3 17 10
v 3 18 10
v 6 21 10
v 6 22 10
v 7 18 10
v 7 21 10
v -5 14 9
v -5 18 9
v -5 21 9
v -5 22 9
v -4 21 9
v -4 22 9
v -4 23 9
v -3 14 9
v -3 18 9
v -2 23 9
v -2 24 9
v 0 14 9
v 0 15 9
v 2 14 9
v 2 15 9
v 4 23 9
v 4 24 9
v 5 14 9
v 5 18 9
v 6 21 9
v 6 22 9
v 6 23 9
v 7 14 9
v 7 18 9
v 7 21 9
v 7 22 9
v -3 4 8
v -3 12 8
v -3 15 8
v -3 16 8
v -3 18 8
v -3 23 8
v -3 24 8
v -2 6 8
v -2 7 8
v -2 8 8
v -2 11 8
v -2 14 8
v -2 15 8
v -2 17 8
v -2 18 8
v -2 23 8
v -2 24 8
v -1 6 8
v -1 7 8
v -1 8 8
v -1 9 8
v -1 11 8
v -1 12 8
v -1 16 8
v -1 17 8
v -1 18 8
v 0 4 8
v 0 7 8
v 0 8 8
v 0 9 8
v 0 10 8
v 0 11 8
v 0 14 8
v 0 17 8
v 2 4 8
v 2 7 8
v 2 8 8
v 2 9 8
v 2 10 8
v 2 11 8
v 2 14 8
v 2 17 8
v 3 6 8
v 3 7 8
v 3 8 8
v 3 9 8
v 3 11 8
v 3 12 8
v 3 16 8
v 3 17 8
v 3 18 8
v 3 19 8
v 3 20 8
v 4 6 8
v 4 7 8
v 4 8 8
v 4 11 8
v 4 12 8
v 4 13 8
v 4 14 8
v 4 15 8
v 4 17 8
v 4 18 8
v 4 19 8
v 4 20 8
v 4 23 8
v 4 24 8
v 5 4 8
v 5 13 8
v 5 15 8
v 5 16 8
v 5 17 8
v 5 18 8
v 5 23 8
v 5 24 8
v -4 11 7
v -4 13 7
v -4 23 7
v -4 24 7
v -3 11 7
v -3 12 7
v -3 23 7
v -3 24 7
v -2 12 7
v -2 13 7
v -1 12 7
v -1 14 7
v 3 12 7
v 3 14 7
v 5 11 7
v 5 13 7
v 5 23 7
v 5 24 7
v 6 11 7
v 6 13 7
v 6 23 7
v 6 24 7
v -5 4 6
v -5 9 6
v -5 10 6
v -5 11 6
v -4 11 6
v -3 0 6
v -3 2 6
v -3 4 6
v -3 9 6
v -3 10 6
v -3 11 6
v -3 14 6
v -3 15 6
v -2 14 6
v -2 15 6
v -1 0 6
v -1 2 6
v -1 4 6
v 3 0 6
v 3 2 6
v 3 4 6
v 4 14 6
v 4 15 6
v 5 0 6
v 5 2 6
v 5 4 6
v 5 9 6
v 5 10 6
v 5 11 6
v 5 14 6
v 5 15 6
v 6 11 6
v 7 4 6
v 7 9 6
v 7 10 6
v 7 11 6
v 3 19 9
v 3 20 9
v 4 19 9
v 4 20 9
v -5 4 4
v -5 9 4
v -5 10 4
v -5 11 4
v -4 11 4
v -3 0 4
v -3 2 4
v -3 4 4
v -3 6 4
v -3 8 4
v -3 9 4
v -3 10 4
v -3 11 4
v -1 0 4
v -1 2 4
v -1 4 4
v 3 0 4
v 3 2 4
v 3 4 4
v 5 0 4
v 5 2 4
v 5 4 4
v 5 6 4
v 5 8 4
v 5 9 4
v 5 10 4
v 5 11 4
v 6 11 4
v 7 4 4
v 7 9 4
v 7 10 4
v 7 11 4
v -4 11 3
v -4 13 3
v -3 11 3
v -3 12 3
v -2 12 3
v -2 13 3
v -1 12 3
v -1 14 3
v 3 12 3
v 3 14 3
v 5 11 3
v 5 13 3
v 6 11 3
v 6 13 3
v -5 14 2
v -5 16 2
v -4 14 2
v -4 16 2
v -4 23 2
v -4 24 2
v -3 4 2
v -3 12 2
v 4 12 2
v 4 13 2
v 5 4 2
v 5 13 2
v 6 14 2
v 6 16 2
v 6 23 2
v 6 24 2
v 7 14 2
v 7 16 2
v -5 21 1
v -5 22 1
v -4 14 1
v -4 16 1
v -4 21 1
v -4 22 1
v -4 23 1
v 6 14 1
v 6 16 1
v 6 21 1
v 6 22 1
v 6 23 1
v 7 21 1
v 7 22 1
v -5 16 -0
v -5 21 -0
v -4 21 -0
v -4 22 -0
v 6 21 -0
v 6 22 -0
v 7 16 -0
v 7 21 -0
v -3 0 6
v -1 0 6
v 3 0 6
v 5 0 6
v -3 0 4
v -1 0 4
v 3 0 4
v 5 0 4
v -3 4 8
v 0 4 8
v 2 4 8
v 5 4 8
v 0 4 7
v 2 4 7
v -5 4 6
v -3 4 6
v -1 4 6
v 3 4 6
v 5 4 6
v 7 4 6
v -5 4 4
v -3 4 4
v -1 4 4
v 3 4 4
v 5 4 4
v 7 4 4
v -3 4 2
v 5 4 2
v -4 11 7
v -3 11 7
v 5 11 7
v 6 11 7
v -4 11 6
v -3 11 6
v 5 11 6
v 6 11 6
v -4 11 4
v -3 11 4
v 5 11 4
v 6 11 4
v -4 11 3
v -3 11 3
v 5 11 3
v 6 11 3
v -5 14 9
v -3 14 9
v 0 14 9
v 2 14 9
v 5 14 9
v 7 14 9
v -2 14 8
v 0 14 8
v 2 14 8
v 4 14 8
v -1 14 7
v 3 14 7
v -3 14 6
v -2 14 6
v -1 14 6
v 3 14 6
v 4 14 6
v 5 14 6
v -1 14 3
v 3 14 3
v -5 14 2
v -4 14 2
v 6 14 2
v 7 14 2
v -4 14 1
v 6 14 1
v 0 15 10
v 2 15 10
v 0 15 9
v 2 15 9
v -3 15 8
v -2 15 8
v 4 15 8
v 5 15 8
v -3 15 6
v -2 15 6
v 4 15 6
v 5 15 6
v -5 16 2
v -4 16 2
v 6 16 2
v 7 16 2
v -4 16 1
v 6 16 1
v -5 16 -0
v 7 16 -0
v -1 17 10
v 0 17 10
v 2 17 10
v 3 17 10
v -1 17 8
v 0 17 8
v 2 17 8
v 3 17 8
v -5 18 10
v -1 18 10
v 3 18 10
v 7 18 10
v -5 18 9
v -3 18 9
v 5 18 9
v 7 18 9
v -3 18 8
v -2 18 8
v -1 18 8
v 3 18 8
v 4 18 8
v 5 18 8
v 3 20 9
v 4 20 9
v 3 20 8
v 4 20 8
v -5 11 6
v -4 11 6
v 6 11 6
v 7 11 6
v -5 11 4
v -4 11 4
v 6 11 4
v 7 11 4
v -3 12 8
v -1 12 8
v 3 12 8
v 4 12 8
v -3 12 7
v -2 12 7
v -1 12 7
v 3 12 7
v -3 12 3
v -2 12 3
v -1 12 3
v 3 12 3
v -3 12 2
v 4 12 2
v 4 13 8
v 5 13 8
v -4 13 7
v -2 13 7
v 5 13 7
v 6 13 7
v -4 13 3
v -2 13 3
v 5 13 3
v 6 13 3
v 4 13 2
v 5 13 2
v 3 19 9
v 4 19 9
v 3 19 8
v 4 19 8
v -5 21 10
v -4 21 10
v 6 21 10
v 7 21 10
v -5 21 9
v -4 21 9
v 6 21 9
v 7 21 9
v -5 21 1
v -4 21 1
v 6 21 1
v 7 21 1
v -5 21 -0
v -4 21 -0
v 6 21 -0
v 7 21 -0
v -4 22 10
v 6 22 10
v -5 22 9
v -4 22 9
v 6 22 9
v 7 22 9
v -5 22 1
v -4 22 1
v 6 22 1
v 7 22 1
v -4 22 -0
v 6 22 -0
v -4 23 9
v -2 23 9
v 4 23 9
v 6 23 9
v -3 23 8
v -2 23 8
v 4 23 8
v 5 23 8
v -4 23 7
v -3 23 7
v 5 23 7
v 6 23 7
v -4 23 2
v 6 23 2
v -4 23 1
v 6 23 1
v -2 24 9
v 4 24 9
v -3 24 8
v -2 24 8
v 4 24 8
v 5 24 8
v -4 24 7
v -3 24 7
v 5 24 7
v 6 24 7
v -4 24 2
v 6 24 2

# faces
f 3/9/1 2/9/1 1/9/1
f 4/9/1 2/9/1 3/9/1
f 5/14/1 4/14/1 3/14/1
f 6/14/1 4/14/1 5/14/1
f 7/4/1 6/4/1 5/4/1
f 8/4/1 6/4/1 7/4/1
f 11/8/1 10/8/1 9/8/1
f 14/8/1 11/8/1 9/8/1
f 14/8/1 12/8/1 11/8/1
f 15/8/1 14/8/1 13/8/1
f 16/8/1 12/8/1 14/8/1
f 16/8/1 14/8/1 15/8/1
f 17/8/1 12/8/1 16/8/1
f 18/8/1 12/8/1 17/8/1
f 19/8/1 17/8/1 16/8/1
f 20/8/1 17/8/1 19/8/1
f 25/9/1 22/9/1 21/9/1
f 25/4/1 23/4/1 22/4/1
f 26/9/1 24/9/1 23/9/1
f 26/4/1 23/4/1 25/4/1
f 27/9/1 25/9/1 21/9/1
f 27/9/1 26/9/1 25/9/1
f 28/9/1 24/9/1 26/9/1
f 28/9/1 26/9/1 27/9/1
f 31/8/1 30/8/1 29/8/1
f 32/8/1 30/8/1 31/8/1
f 37/8/1 34/8/1 33/8/1
f 38/8/1 34/8/1 37/8/1
f 39/8/1 36/8/1 35/8/1
f 40/8/1 36/8/1 39/8/1
f 41/8/1 39/8/1 38/8/1
f 42/8/1 39/8/1 41/8/1
f 43/8/1 39/8/1 42/8/1
f 44/8/1 39/8/1 43/8/1
f 45/8/1 43/8/1 42/8/1
f 46/8/1 43/8/1 45/8/1
f 49/8/1 48/8/1 47/8/1
f 50/8/1 48/8/1 49/8/1
f 52/14/1 50/14/1 49/14/1
f 53/14/1 50/14/1 52/14/1
f 55/9/1 54/9/1 53/9/1
f 56/9/1 54/9/1 55/9/1
f 57/12/1 56/12/1 55/12/1
f 58/9/1 54/9/1 56/9/1
f 58/12/1 56/12/1 57/12/1
f 59/9/1 52/9/1 51/9/1
f 60/9/1 58/9/1 57/9/1
f 61/9/1 59/9/1 51/9/1
f 62/9/1 58/9/1 60/9/1
f 63/9/1 61/9/1 51/9/1
f 64/9/1 61/9/1 63/9/1
f 65/9/1 58/9/1 62/9/1
f 66/9/1 54/9/1 58/9/1
f 66/9/1 58/9/1 65/9/1
f 67/9/1 63/9/1 51/9/1
f 68/9/1 63/9/1 67/9/1
f 69/9/1 54/9/1 66/9/1
f 70/9/1 54/9/1 69/9/1
f 73/8/1 72/8/1 71/8/1
f 74/8/1 72/8/1 73/8/1
f 77/4/1 76/4/1 75/4/1
f 78/4/1 76/4/1 77/4/1
f 81/8/1 80/8/1 79/8/1
f 82/8/1 80/8/1 81/8/1
f 85/4/1 84/4/1 83/4/1
f 86/4/1 84/4/1 85/4/1
f 87/4/1 84/4/1 86/4/1
f 90/8/1 89/8/1 88/8/1
f 91/8/1 89/8/1 90/8/1
f 95/8/1 93/8/1 92/8/1
f 96/8/1 95/8/1 94/8/1
f 97/8/1 93/8/1 95/8/1
f 97/8/1 95/8/1 96/8/1
f 100/8/1 99/8/1 98/8/1
f 101/8/1 99/8/1 100/8/1
f 102/14/1 101/14/1 100/14/1
f 103/14/1 101/14/1 102/14/1
f 106/9/1 105/9/1 104/9/1
f 107/9/1 105/9/1 106/9/1
f 110/8/1 109/8/1 108/8/1
f 111/8/1 109/8/1 110/8/1
f 114/8/1 113/8/1 112/8/1
f 115/8/1 113/8/1 114/8/1
f 116/8/1 114/8/1 112/8/1
f 117/8/1 116/8/1 112/8/1
f 118/8/1 117/8/1 112/8/1
f 119/8/1 117/8/1 118/8/1
f 120/8/2 121/8/2 122/8/2
f 122/8/2 121/8/2 123/8/2
f 120/8/2 122/8/2 124/8/2
f 120/8/2 124/8/2 125/8/2
f 125/8/2 124/8/2 126/8/2
f 127/9/2 128/9/2 129/9/2
f 129/9/2 128/9/2 130/9/2
f 131/8/2 132/8/2 133/8/2
f 133/8/2 132/8/2 134/8/2
f 133/14/2 134/14/2 135/14/2
f 135/14/2 134/14/2 136/14/2
f 137/8/2 138/8/2 140/8/2
f 139/8/2 140/8/2 141/8/2
f 140/8/2 138/8/2 142/8/2
f 141/8/2 140/8/2 142/8/2
f 143/4/2 144/4/2 145/4/2
f 145/4/2 144/4/2 146/4/2
f 146/4/2 144/4/2 147/4/2
f 148/8/2 149/8/2 150/8/2
f 150/8/2 149/8/2 151/8/2
f 152/8/2 153/8/2 154/8/2
f 154/8/2 153/8/2 155/8/2
f 156/4/2 157/4/2 158/4/2
f 158/4/2 157/4/2 159/4/2
f 160/8/2 161/8/2 162/8/2
f 162/8/2 161/8/2 163/8/2
f 164/8/2 165/8/2 166/8/2
f 166/8/2 165/8/2 167/8/2
f 166/14/2 167/14/2 169/14/2
f 169/14/2 167/14/2 170/14/2
f 170/9/2 171/9/2 172/9/2
f 172/9/2 171/9/2 173/9/2
f 172/12/2 173/12/2 174/12/2
f 173/9/2 171/9/2 175/9/2
f 174/12/2 173/12/2 175/12/2
f 168/9/2 169/9/2 176/9/2
f 174/9/2 175/9/2 177/9/2
f 168/9/2 176/9/2 178/9/2
f 177/9/2 175/9/2 179/9/2
f 168/9/2 178/9/2 180/9/2
f 180/9/2 178/9/2 181/9/2
f 179/9/2 175/9/2 182/9/2
f 175/9/2 171/9/2 183/9/2
f 182/9/2 175/9/2 183/9/2
f 168/9/2 180/9/2 184/9/2
f 184/9/2 180/9/2 185/9/2
f 183/9/2 171/9/2 186/9/2
f 186/9/2 171/9/2 187/9/2
f 188/8/2 189/8/2 190/8/2
f 190/8/2 189/8/2 191/8/2
f 192/9/2 193/9/2 196/9/2
f 193/4/2 194/4/2 196/4/2
f 194/9/2 195/9/2 197/9/2
f 196/4/2 194/4/2 197/4/2
f 192/9/2 196/9/2 198/9/2
f 196/9/2 197/9/2 198/9/2
f 197/9/2 195/9/2 199/9/2
f 198/9/2 197/9/2 199/9/2
f 200/8/2 201/8/2 202/8/2
f 202/8/2 201/8/2 203/8/2
f 204/8/2 205/8/2 208/8/2
f 208/8/2 205/8/2 209/8/2
f 206/8/2 207/8/2 210/8/2
f 210/8/2 207/8/2 211/8/2
f 209/8/2 210/8/2 212/8/2
f 212/8/2 210/8/2 213/8/2
f 213/8/2 210/8/2 214/8/2
f 214/8/2 210/8/2 215/8/2
f 213/8/2 214/8/2 216/8/2
f 216/8/2 214/8/2 217/8/2
f 218/9/2 219/9/2 220/9/2
f 220/9/2 219/9/2 221/9/2
f 220/14/2 221/14/2 222/14/2
f 222/14/2 221/14/2 223/14/2
f 222/4/2 223/4/2 224/4/2
f 224/4/2 223/4/2 225/4/2
f 226/8/2 227/8/2 228/8/2
f 226/8/2 228/8/2 231/8/2
f 228/8/2 229/8/2 231/8/2
f 230/8/2 231/8/2 232/8/2
f 231/8/2 229/8/2 233/8/2
f 232/8/2 231/8/2 233/8/2
f 233/8/2 229/8/2 234/8/2
f 234/8/2 229/8/2 235/8/2
f 233/8/2 234/8/2 236/8/2
f 236/8/2 234/8/2 237/8/2
f 240/8/3 239/8/3 238/8/3
f 243/8/3 240/8/3 238/8/3
f 243/8/3 241/8/3 240/8/3
f 245/8/3 243/8/3 242/8/3
f 246/8/3 245/8/3 244/8/3
f 247/8/3 243/8/3 245/8/3
f 247/8/3 245/8/3 246/8/3
f 248/8/3 243/8/3 247/8/3
f 249/8/3 241/8/3 243/8/3
f 249/8/3 243/8/3 248/8/3
f 250/8/3 241/8/3 249/8/3
f 251/8/3 241/8/3 250/8/3
f 252/8/3 250/8/3 249/8/3
f 253/8/3 250/8/3 252/8/3
f 258/8/3 257/8/3 256/8/3
f 259/8/3 257/8/3 258/8/3
f 261/8/3 255/8/3 254/8/3
f 262/8/3 255/8/3 261/8/3
f 263/8/3 260/8/3 259/8/3
f 267/8/3 266/8/3 265/8/3
f 268/8/3 266/8/3 267/8/3
f 269/8/3 263/8/3 259/8/3
f 269/8/3 264/8/3 263/8/3
f 270/8/3 264/8/3 269/8/3
f 274/8/3 269/8/3 259/8/3
f 275/8/3 269/8/3 274/8/3
f 276/8/3 272/8/3 271/8/3
f 277/8/3 272/8/3 276/8/3
f 278/8/3 274/8/3 273/8/3
f 279/8/3 274/8/3 278/8/3
f 287/9/3 281/9/3 280/9/3
f 288/9/3 281/9/3 287/9/3
f 289/9/3 281/9/3 288/9/3
f 290/9/3 281/9/3 289/9/3
f 292/4/3 283/4/3 282/4/3
f 293/15/3 284/15/3 283/15/3
f 294/15/3 284/15/3 293/15/3
f 295/8/3 286/8/3 285/8/3
f 296/8/3 286/8/3 295/8/3
f 297/9/3 287/9/3 280/9/3
f 297/14/3 288/14/3 287/14/3
f 298/9/3 289/9/3 288/9/3
f 298/14/3 288/14/3 297/14/3
f 299/10/3 290/10/3 289/10/3
f 299/9/3 289/9/3 298/9/3
f 300/10/3 290/10/3 299/10/3
f 301/9/3 281/9/3 290/9/3
f 301/10/3 290/10/3 300/10/3
f 302/9/3 281/9/3 301/9/3
f 303/4/3 292/4/3 291/4/3
f 303/4/3 283/4/3 292/4/3
f 303/15/3 293/15/3 283/15/3
f 304/11/3 294/11/3 293/11/3
f 304/15/3 293/15/3 303/15/3
f 305/11/3 294/11/3 304/11/3
f 306/9/3 297/9/3 280/9/3
f 306/9/3 298/9/3 297/9/3
f 307/14/3 299/14/3 298/14/3
f 307/9/3 298/9/3 306/9/3
f 308/10/3 300/10/3 299/10/3
f 308/14/3 299/14/3 307/14/3
f 309/9/3 301/9/3 300/9/3
f 309/10/3 300/10/3 308/10/3
f 310/9/3 301/9/3 309/9/3
f 311/4/3 302/4/3 301/4/3
f 311/9/3 301/9/3 310/9/3
f 312/4/3 303/4/3 291/4/3
f 312/4/3 304/4/3 303/4/3
f 313/4/3 304/4/3 312/4/3
f 314/10/3 307/10/3 306/10/3
f 314/10/3 308/10/3 307/10/3
f 315/10/3 308/10/3 314/10/3
f 316/8/3 309/8/3 308/8/3
f 316/10/3 308/10/3 315/10/3
f 317/9/3 310/9/3 309/9/3
f 317/8/3 309/8/3 316/8/3
f 318/4/3 311/4/3 310/4/3
f 318/9/3 310/9/3 317/9/3
f 319/4/3 302/4/3 311/4/3
f 319/4/3 311/4/3 318/4/3
f 322/9/3 315/9/3 314/9/3
f 323/14/3 316/14/3 315/14/3
f 323/9/3 315/9/3 322/9/3
f 324/10/3 317/10/3 316/10/3
f 324/14/3 316/14/3 323/14/3
f 325/9/3 318/9/3 317/9/3
f 325/10/3 317/10/3 324/10/3
f 325/9/3 319/9/3 318/9/3
f 326/4/3 302/4/3 319/4/3
f 326/9/3 319/9/3 325/9/3
f 327/4/3 302/4/3 326/4/3
f 328/4/3 321/4/3 320/4/3
f 329/4/3 321/4/3 328/4/3
f 333/9/3 322/9/3 314/9/3
f 333/14/3 323/14/3 322/14/3
f 334/9/3 324/9/3 323/9/3
f 334/14/3 323/14/3 333/14/3
f 335/10/3 325/10/3 324/10/3
f 335/9/3 324/9/3 334/9/3
f 335/10/3 326/10/3 325/10/3
f 336/9/3 327/9/3 326/9/3
f 336/10/3 326/10/3 335/10/3
f 337/9/3 327/9/3 336/9/3
f 339/4/3 328/4/3 320/4/3
f 340/4/3 328/4/3 339/4/3
f 341/15/3 329/15/3 328/15/3
f 341/15/3 330/15/3 329/15/3
f 342/15/3 330/15/3 341/15/3
f 343/8/3 332/8/3 331/8/3
f 344/8/3 332/8/3 343/8/3
f 347/9/3 333/9/3 314/9/3
f 347/9/3 338/9/3 337/9/3
f 347/9/3 335/9/3 334/9/3
f 347/9/3 334/9/3 333/9/3
f 347/9/3 337/9/3 336/9/3
f 347/9/3 336/9/3 335/9/3
f 348/9/3 338/9/3 347/9/3
f 349/4/3 328/4/3 340/4/3
f 350/15/3 341/15/3 328/15/3
f 350/4/3 328/4/3 349/4/3
f 351/11/3 342/11/3 341/11/3
f 351/15/3 341/15/3 350/15/3
f 352/11/3 342/11/3 351/11/3
f 353/8/3 346/8/3 345/8/3
f 354/8/3 346/8/3 353/8/3
f 359/9/3 356/9/3 355/9/3
f 360/9/3 356/9/3 359/9/3
f 361/8/3 358/8/3 357/8/3
f 362/8/3 358/8/3 361/8/3
f 363/9/3 356/9/3 360/9/3
f 364/9/3 356/9/3 363/9/3
f 367/4/3 366/4/3 365/4/3
f 368/4/3 366/4/3 367/4/3
f 373/9/3 370/9/3 369/9/3
f 374/9/3 370/9/3 373/9/3
f 375/8/3 372/8/3 371/8/3
f 376/8/3 372/8/3 375/8/3
f 381/4/3 380/4/3 379/4/3
f 384/9/3 378/9/3 377/9/3
f 385/14/3 379/14/3 378/14/3
f 385/9/3 378/9/3 384/9/3
f 386/4/3 381/4/3 379/4/3
f 386/14/3 379/14/3 385/14/3
f 387/4/3 381/4/3 386/4/3
f 390/8/3 389/8/3 388/8/3
f 391/8/3 389/8/3 390/8/3
f 392/8/3 383/8/3 382/8/3
f 393/14/3 384/14/3 383/14/3
f 393/8/3 383/8/3 392/8/3
f 394/14/3 384/14/3 393/14/3
f 400/8/3 396/8/3 395/8/3
f 401/14/3 397/14/3 396/14/3
f 401/8/3 396/8/3 400/8/3
f 402/14/3 397/14/3 401/14/3
f 406/8/3 399/8/3 398/8/3
f 407/8/3 399/8/3 406/8/3
f 408/4/3 405/4/3 404/4/3
f 409/9/3 403/9/3 402/9/3
f 410/14/3 404/14/3 403/14/3
f 410/9/3 403/9/3 409/9/3
f 411/4/3 408/4/3 404/4/3
f 411/14/3 404/14/3 410/14/3
f 412/4/3 408/4/3 411/4/3
f 413/8/4 414/8/4 415/8/4
f 415/8/4 414/8/4 416/8/4
f 419/4/4 420/4/4 421/4/4
f 417/9/4 418/9/4 424/9/4
f 424/9/4 418/9/4 425/9/4
f 425/9/4 418/9/4 426/9/4
f 418/14/4 419/14/4 427/14/4
f 426/9/4 418/9/4 427/9/4
f 419/4/4 421/4/4 428/4/4
f 427/14/4 419/14/4 428/14/4
f 428/4/4 421/4/4 429/4/4
f 422/8/4 423/8/4 430/8/4
f 423/14/4 424/14/4 431/14/4
f 430/8/4 423/8/4 431/8/4
f 431/14/4 424/14/4 432/14/4
f 433/8/4 434/8/4 436/8/4
f 434/14/4 435/14/4 437/14/4
f 436/8/4 434/8/4 437/8/4
f 437/14/4 435/14/4 438/14/4
f 442/4/4 443/4/4 444/4/4
f 440/9/4 441/9/4 445/9/4
f 438/9/4 439/9/4 445/9/4
f 439/9/4 440/9/4 445/9/4
f 441/14/4 442/14/4 446/14/4
f 445/9/4 441/9/4 446/9/4
f 442/4/4 444/4/4 447/4/4
f 446/14/4 442/14/4 447/14/4
f 447/4/4 444/4/4 448/4/4
f 449/9/4 450/9/4 451/9/4
f 451/9/4 450/9/4 452/9/4
f 452/9/4 450/9/4 453/9/4
f 453/9/4 450/9/4 454/9/4
f 455/4/4 456/4/4 457/4/4
f 457/4/4 456/4/4 458/4/4
f 459/9/4 460/9/4 461/9/4
f 461/9/4 460/9/4 462/9/4
f 463/8/4 464/8/4 465/8/4
f 465/8/4 464/8/4 466/8/4
f 469/9/4 470/9/4 471/9/4
f 469/9/4 471/9/4 473/9/4
f 471/9/4 472/9/4 473/9/4
f 473/9/4 472/9/4 474/9/4
f 467/8/4 468/8/4 477/8/4
f 477/8/4 468/8/4 478/8/4
f 475/8/4 476/8/4 479/8/4
f 479/8/4 476/8/4 480/8/4
f 481/8/4 482/8/4 485/8/4
f 485/8/4 482/8/4 486/8/4
f 483/8/4 484/8/4 488/8/4
f 488/8/4 484/8/4 489/8/4
f 486/8/4 487/8/4 491/8/4
f 491/8/4 487/8/4 492/8/4
f 490/8/4 491/8/4 493/8/4
f 493/8/4 491/8/4 494/8/4
f 495/8/4 496/8/4 497/8/4
f 495/8/4 497/8/4 499/8/4
f 497/8/4 498/8/4 499/8/4
f 499/8/4 498/8/4 500/8/4
f 495/8/4 499/8/4 501/8/4
f 501/8/4 499/8/4 502/8/4
f 507/8/5 504/8/5 503/8/5
f 508/8/5 504/8/5 507/8/5
f 509/8/5 506/8/5 505/8/5
f 510/8/5 506/8/5 509/8/5
f 515/9/5 512/9/5 511/9/5
f 515/10/5 513/10/5 512/10/5
f 516/9/5 514/9/5 513/9/5
f 516/10/5 513/10/5 515/10/5
f 518/9/5 515/9/5 511/9/5
f 518/9/5 516/9/5 515/9/5
f 519/9/5 516/9/5 518/9/5
f 520/9/5 514/9/5 516/9/5
f 520/9/5 516/9/5 519/9/5
f 521/9/5 514/9/5 520/9/5
f 523/9/5 518/9/5 517/9/5
f 524/9/5 518/9/5 523/9/5
f 525/9/5 520/9/5 519/9/5
f 526/9/5 520/9/5 525/9/5
f 527/9/5 522/9/5 521/9/5
f 528/9/5 522/9/5 527/9/5
f 529/9/5 526/9/5 525/9/5
f 529/9/5 527/9/5 526/9/5
f 529/9/5 525/9/5 524/9/5
f 530/9/5 527/9/5 529/9/5
f 535/9/5 532/9/5 531/9/5
f 536/9/5 532/9/5 535/9/5
f 537/9/5 534/9/5 533/9/5
f 538/9/5 534/9/5 537/9/5
f 543/9/5 540/9/5 539/9/5
f 544/9/5 540/9/5 543/9/5
f 545/9/5 542/9/5 541/9/5
f 546/9/5 542/9/5 545/9/5
f 554/8/5 550/8/5 549/8/5
f 555/8/5 550/8/5 554/8/5
f 557/4/5 554/4/5 553/4/5
f 557/4/5 556/4/5 555/4/5
f 557/4/5 555/4/5 554/4/5
f 558/4/5 556/4/5 557/4/5
f 559/8/5 548/8/5 547/8/5
f 560/4/5 557/4/5 553/4/5
f 561/4/5 557/4/5 560/4/5
f 562/4/5 556/4/5 558/4/5
f 563/4/5 556/4/5 562/4/5
f 564/8/5 552/8/5 551/8/5
f 565/8/5 561/8/5 560/8/5
f 565/8/5 560/8/5 559/8/5
f 566/8/5 564/8/5 563/8/5
f 566/8/5 563/8/5 562/8/5
f 567/8/5 565/8/5 559/8/5
f 567/8/5 566/8/5 565/8/5
f 567/8/5 559/8/5 547/8/5
f 568/8/5 566/8/5 567/8/5
f 569/8/5 564/8/5 566/8/5
f 569/8/5 566/8/5 568/8/5
f 569/8/5 552/8/5 564/8/5
f 570/8/5 552/8/5 569/8/5
f 571/8/5 569/8/5 568/8/5
f 572/8/5 569/8/5 571/8/5
f 575/8/5 574/8/5 573/8/5
f 576/8/5 574/8/5 575/8/5
f 581/4/5 578/4/5 577/4/5
f 582/4/5 578/4/5 581/4/5
f 583/4/5 580/4/5 579/4/5
f 584/4/5 580/4/5 583/4/5
f 589/8/5 586/8/5 585/8/5
f 590/8/5 588/8/5 587/8/5
f 591/8/5 589/8/5 585/8/5
f 591/8/5 590/8/5 589/8/5
f 592/8/5 588/8/5 590/8/5
f 592/8/5 590/8/5 591/8/5
f 597/8/5 594/8/5 593/8/5
f 598/8/5 594/8/5 597/8/5
f 599/8/5 596/8/5 595/8/5
f 600/8/5 596/8/5 599/8/5
f 605/8/5 602/8/5 601/8/5
f 606/8/5 602/8/5 605/8/5
f 607/8/5 604/8/5 603/8/5
f 608/8/5 604/8/5 607/8/5
f 609/8/5 602/8/5 606/8/5
f 610/8/5 602/8/5 609/8/5
f 611/8/5 602/8/5 610/8/5
f 612/8/5 607/8/5 603/8/5
f 613/8/5 607/8/5 612/8/5
f 614/8/5 607/8/5 613/8/5
f 617/8/5 616/8/5 615/8/5
f 618/8/5 616/8/5 617/8/5
f 619/4/6 620/4/6 623/4/6
f 623/4/6 620/4/6 624/4/6
f 621/4/6 622/4/6 625/4/6
f 625/4/6 622/4/6 626/4/6
f 627/9/6 628/9/6 631/9/6
f 631/9/6 628/9/6 632/9/6
f 628/4/6 629/4/6 633/4/6
f 632/9/6 628/9/6 633/9/6
f 629/9/6 630/9/6 634/9/6
f 633/4/6 629/4/6 634/4/6
f 632/9/6 633/9/6 636/9/6
f 636/9/6 633/9/6 637/9/6
f 634/9/6 630/9/6 638/9/6
f 636/9/6 637/9/6 639/9/6
f 637/9/6 638/9/6 639/9/6
f 635/9/6 636/9/6 639/9/6
f 638/9/6 630/9/6 640/9/6
f 639/9/6 638/9/6 640/9/6
f 641/9/6 642/9/6 645/9/6
f 643/9/6 644/9/6 647/9/6
f 647/9/6 644/9/6 648/9/6
f 645/9/6 646/9/6 649/9/6
f 641/9/6 645/9/6 649/9/6
f 649/9/6 646/9/6 650/9/6
f 641/9/6 649/9/6 651/9/6
f 651/9/6 649/9/6 652/9/6
f 653/8/6 654/8/6 655/8/6
f 655/8/6 654/8/6 656/8/6
f 657/8/6 658/8/6 661/8/6
f 661/8/6 658/8/6 662/8/6
f 659/8/6 660/8/6 663/8/6
f 663/8/6 660/8/6 664/8/6
f 665/8/6 666/8/6 669/8/6
f 669/8/6 666/8/6 670/8/6
f 667/8/6 668/8/6 671/8/6
f 671/8/6 668/8/6 672/8/6
f 673/8/6 674/8/6 676/8/6
f 676/8/6 674/8/6 677/8/6
f 675/8/6 676/8/6 679/8/6
f 679/8/6 676/8/6 680/8/6
f 677/8/6 678/8/6 681/8/6
f 681/8/6 678/8/6 682/8/6
f 680/8/6 681/8/6 683/8/6
f 683/8/6 681/8/6 684/8/6
f 685/8/6 686/8/6 689/8/6
f 689/8/6 686/8/6 690/8/6
f 687/8/6 688/8/6 691/8/6
f 691/8/6 688/8/6 692/8/6
f 685/8/6 689/8/6 693/8/6
f 693/8/6 689/8/6 694/8/6
f 692/8/6 688/8/6 695/8/6
f 695/8/6 688/8/6 696/8/6
f 697/8/6 698/8/6 699/8/6
f 699/8/6 698/8/6 700/8/6
f 701/8/6 702/8/6 704/8/6
f 704/8/6 702/8/6 705/8/6
f 703/8/6 704/8/6 708/8/6
f 705/8/6 706/8/6 708/8/6
f 704/8/6 705/8/6 708/8/6
f 708/8/6 706/8/6 709/8/6
f 707/8/6 708/8/6 711/8/6
f 709/8/6 710/8/6 711/8/6
f 708/8/6 709/8/6 711/8/6
f 711/8/6 710/8/6 712/8/6
