# MagicaVoxel @ Ephtracy

# group
g pot_mana_2

# material
mtllib pot_mana_2.mtl
usemtl palette

# normals
vn -1 0 0
vn 1 0 0
vn 0 0 1
vn 0 0 -1
vn 0 -1 0
vn 0 1 0

# texcoords
vt 0.0644531 0.5
vt 0.310547 0.5
vt 0.775391 0.5

# verts
v -2 1 2
v -2 1 -2
v -2 9 2
v -2 9 -2
v -1 0 1
v -1 0 -1
v -1 1 1
v -1 1 -1
v -1 9 1
v -1 9 -1
v -1 10 1
v -1 10 -1
v -1 11 1
v -1 11 -1
v 1 0 1
v 1 0 -1
v 1 1 1
v 1 1 -1
v 1 9 1
v 1 9 -1
v 1 10 1
v 1 10 -1
v 1 11 1
v 1 11 -1
v 2 1 2
v 2 1 -2
v 2 9 2
v 2 9 -2
v -2 1 2
v -2 9 2
v 2 1 2
v 2 9 2
v -1 0 1
v -1 1 1
v -1 9 1
v -1 10 1
v -1 11 1
v 1 0 1
v 1 1 1
v 1 9 1
v 1 10 1
v 1 11 1
v -1 0 -1
v -1 1 -1
v -1 9 -1
v -1 10 -1
v -1 11 -1
v 1 0 -1
v 1 1 -1
v 1 9 -1
v 1 10 -1
v 1 11 -1
v -2 1 -2
v -2 9 -2
v 2 1 -2
v 2 9 -2
v -1 0 1
v 1 0 1
v -1 0 -1
v 1 0 -1
v -2 1 2
v 2 1 2
v -1 1 1
v 1 1 1
v -1 1 -1
v 1 1 -1
v -2 1 -2
v 2 1 -2
v -2 9 2
v 2 9 2
v -1 9 1
v 1 9 1
v -1 9 -1
v 1 9 -1
v -2 9 -2
v 2 9 -2
v -1 11 1
v 1 11 1
v -1 11 -1
v 1 11 -1

# faces
f 3/3/1 2/3/1 1/3/1
f 4/3/1 2/3/1 3/3/1
f 7/3/1 6/3/1 5/3/1
f 8/3/1 6/3/1 7/3/1
f 11/3/1 10/3/1 9/3/1
f 12/3/1 10/3/1 11/3/1
f 13/2/1 12/2/1 11/2/1
f 14/2/1 12/2/1 13/2/1
f 15/3/2 16/3/2 17/3/2
f 17/3/2 16/3/2 18/3/2
f 19/3/2 20/3/2 21/3/2
f 21/3/2 20/3/2 22/3/2
f 21/2/2 22/2/2 23/2/2
f 23/2/2 22/2/2 24/2/2
f 25/3/2 26/3/2 27/3/2
f 27/3/2 26/3/2 28/3/2
f 31/3/3 30/3/3 29/3/3
f 32/3/3 30/3/3 31/3/3
f 38/3/3 34/3/3 33/3/3
f 39/3/3 34/3/3 38/3/3
f 40/3/3 36/3/3 35/3/3
f 41/2/3 37/2/3 36/2/3
f 41/3/3 36/3/3 40/3/3
f 42/2/3 37/2/3 41/2/3
f 43/3/4 44/3/4 48/3/4
f 48/3/4 44/3/4 49/3/4
f 45/3/4 46/3/4 50/3/4
f 46/2/4 47/2/4 51/2/4
f 50/3/4 46/3/4 51/3/4
f 51/2/4 47/2/4 52/2/4
f 53/3/4 54/3/4 55/3/4
f 55/3/4 54/3/4 56/3/4
f 59/3/5 58/3/5 57/3/5
f 60/3/5 58/3/5 59/3/5
f 63/3/5 62/3/5 61/3/5
f 64/3/5 62/3/5 63/3/5
f 65/3/5 63/3/5 61/3/5
f 66/3/5 62/3/5 64/3/5
f 67/3/5 65/3/5 61/3/5
f 67/3/5 66/3/5 65/3/5
f 68/3/5 62/3/5 66/3/5
f 68/3/5 66/3/5 67/3/5
f 69/3/6 70/3/6 71/3/6
f 71/3/6 70/3/6 72/3/6
f 69/3/6 71/3/6 73/3/6
f 72/3/6 70/3/6 74/3/6
f 69/3/6 73/3/6 75/3/6
f 73/3/6 74/3/6 75/3/6
f 74/3/6 70/3/6 76/3/6
f 75/3/6 74/3/6 76/3/6
f 77/2/6 78/2/6 79/2/6
f 79/2/6 78/2/6 80/2/6
