# MagicaVoxel @ Ephtracy

# group
g pot_mana_1

# material
mtllib pot_mana_1.mtl
usemtl palette

# normals
vn -1 0 0
vn 1 0 0
vn 0 0 1
vn 0 0 -1
vn 0 -1 0
vn 0 1 0

# texcoords
vt 0.115234 0.5
vt 0.310547 0.5
vt 0.775391 0.5

# verts
v -3 2 3
v -3 2 -3
v -3 7 3
v -3 7 -3
v -2 1 2
v -2 1 -2
v -2 2 2
v -2 2 -2
v -2 7 2
v -2 7 -2
v -2 8 2
v -2 8 -2
v -1 0 1
v -1 0 -1
v -1 1 1
v -1 1 -1
v -1 8 1
v -1 8 -1
v -1 9 1
v -1 9 -1
v 1 0 1
v 1 0 -1
v 1 1 1
v 1 1 -1
v 1 8 1
v 1 8 -1
v 1 9 1
v 1 9 -1
v 2 1 2
v 2 1 -2
v 2 2 2
v 2 2 -2
v 2 7 2
v 2 7 -2
v 2 8 2
v 2 8 -2
v 3 2 3
v 3 2 -3
v 3 7 3
v 3 7 -3
v -3 2 3
v -3 7 3
v 3 2 3
v 3 7 3
v -2 1 2
v -2 2 2
v -2 7 2
v -2 8 2
v 2 1 2
v 2 2 2
v 2 7 2
v 2 8 2
v -1 0 1
v -1 1 1
v -1 8 1
v -1 9 1
v 1 0 1
v 1 1 1
v 1 8 1
v 1 9 1
v -1 0 -1
v -1 1 -1
v -1 8 -1
v -1 9 -1
v 1 0 -1
v 1 1 -1
v 1 8 -1
v 1 9 -1
v -2 1 -2
v -2 2 -2
v -2 7 -2
v -2 8 -2
v 2 1 -2
v 2 2 -2
v 2 7 -2
v 2 8 -2
v -3 2 -3
v -3 7 -3
v 3 2 -3
v 3 7 -3
v -1 0 1
v 1 0 1
v -1 0 -1
v 1 0 -1
v -2 1 2
v 2 1 2
v -1 1 1
v 1 1 1
v -1 1 -1
v 1 1 -1
v -2 1 -2
v 2 1 -2
v -3 2 3
v 3 2 3
v -2 2 2
v 2 2 2
v -2 2 -2
v 2 2 -2
v -3 2 -3
v 3 2 -3
v -3 7 3
v 3 7 3
v -2 7 2
v 2 7 2
v -2 7 -2
v 2 7 -2
v -3 7 -3
v 3 7 -3
v -2 8 2
v 2 8 2
v -1 8 1
v 1 8 1
v -1 8 -1
v 1 8 -1
v -2 8 -2
v 2 8 -2
v -1 9 1
v 1 9 1
v -1 9 -1
v 1 9 -1

# faces
f 3/3/1 2/3/1 1/3/1
f 4/3/1 2/3/1 3/3/1
f 7/3/1 6/3/1 5/3/1
f 8/3/1 6/3/1 7/3/1
f 11/3/1 10/3/1 9/3/1
f 12/3/1 10/3/1 11/3/1
f 15/3/1 14/3/1 13/3/1
f 16/3/1 14/3/1 15/3/1
f 19/2/1 18/2/1 17/2/1
f 20/2/1 18/2/1 19/2/1
f 21/3/2 22/3/2 23/3/2
f 23/3/2 22/3/2 24/3/2
f 25/2/2 26/2/2 27/2/2
f 27/2/2 26/2/2 28/2/2
f 29/3/2 30/3/2 31/3/2
f 31/3/2 30/3/2 32/3/2
f 33/3/2 34/3/2 35/3/2
f 35/3/2 34/3/2 36/3/2
f 37/3/2 38/3/2 39/3/2
f 39/3/2 38/3/2 40/3/2
f 43/3/3 42/3/3 41/3/3
f 44/3/3 42/3/3 43/3/3
f 49/3/3 46/3/3 45/3/3
f 50/3/3 46/3/3 49/3/3
f 51/3/3 48/3/3 47/3/3
f 52/3/3 48/3/3 51/3/3
f 57/3/3 54/3/3 53/3/3
f 58/3/3 54/3/3 57/3/3
f 59/2/3 56/2/3 55/2/3
f 60/2/3 56/2/3 59/2/3
f 61/3/4 62/3/4 65/3/4
f 65/3/4 62/3/4 66/3/4
f 63/2/4 64/2/4 67/2/4
f 67/2/4 64/2/4 68/2/4
f 69/3/4 70/3/4 73/3/4
f 73/3/4 70/3/4 74/3/4
f 71/3/4 72/3/4 75/3/4
f 75/3/4 72/3/4 76/3/4
f 77/3/4 78/3/4 79/3/4
f 79/3/4 78/3/4 80/3/4
f 83/3/5 82/3/5 81/3/5
f 84/3/5 82/3/5 83/3/5
f 87/3/5 86/3/5 85/3/5
f 88/3/5 86/3/5 87/3/5
f 89/3/5 87/3/5 85/3/5
f 90/3/5 86/3/5 88/3/5
f 91/3/5 89/3/5 85/3/5
f 91/3/5 90/3/5 89/3/5
f 92/3/5 86/3/5 90/3/5
f 92/3/5 90/3/5 91/3/5
f 95/3/5 94/3/5 93/3/5
f 96/3/5 94/3/5 95/3/5
f 97/3/5 95/3/5 93/3/5
f 98/3/5 94/3/5 96/3/5
f 99/3/5 97/3/5 93/3/5
f 99/3/5 98/3/5 97/3/5
f 100/3/5 94/3/5 98/3/5
f 100/3/5 98/3/5 99/3/5
f 101/3/6 102/3/6 103/3/6
f 103/3/6 102/3/6 104/3/6
f 101/3/6 103/3/6 105/3/6
f 104/3/6 102/3/6 106/3/6
f 101/3/6 105/3/6 107/3/6
f 105/3/6 106/3/6 107/3/6
f 106/3/6 102/3/6 108/3/6
f 107/3/6 106/3/6 108/3/6
f 109/3/6 110/3/6 111/3/6
f 111/3/6 110/3/6 112/3/6
f 109/3/6 111/3/6 113/3/6
f 112/3/6 110/3/6 114/3/6
f 109/3/6 113/3/6 115/3/6
f 113/3/6 114/3/6 115/3/6
f 114/3/6 110/3/6 116/3/6
f 115/3/6 114/3/6 116/3/6
f 117/2/6 118/2/6 119/2/6
f 119/2/6 118/2/6 120/2/6
